{"glyphs":{"0":{"ha":972,"x_min":0,"x_max":0,"o":"m 486 761 b 838 409 680 761 838 603 b 486 57 838 215 680 57 b 134 409 292 57 134 215 b 486 761 134 603 292 761 z m 486 833 b 61 409 246 833 61 644 b 486 -16 61 174 251 -16 b 911 409 720 -16 911 174 b 486 833 911 644 718 833 z "},"1":{"ha":288,"x_min":0,"x_max":0,"o":"m 142 810 b 49 735 142 810 133 739 l 41 735 l 41 660 b 144 660 60 660 104 660 l 144 5 l 144 3 l 227 3 l 227 810 z "},"2":{"ha":551,"x_min":0,"x_max":0,"o":"m 157 79 b 458 475 160 83 452 463 b 484 573 475 504 484 538 l 484 598 b 273 810 484 715 389 810 b 61 598 156 810 61 715 l 134 598 b 273 736 136 675 197 736 b 411 598 349 736 411 675 l 411 573 b 387 500 411 546 401 521 l 63 79 l 63 5 l 490 5 l 490 79 l 157 79 z "},"3":{"ha":557,"x_min":0,"x_max":0,"o":"m 496 590 l 496 615 b 279 833 496 735 398 833 b 61 615 159 833 61 735 l 136 615 b 279 758 136 694 200 758 b 421 615 357 758 421 694 l 421 590 b 377 492 421 550 406 517 b 298 456 356 474 329 462 b 205 452 254 450 205 452 l 205 384 b 298 380 205 384 258 387 b 377 344 329 374 356 362 b 421 246 406 319 421 286 l 421 200 b 279 58 421 121 357 58 b 136 200 200 58 136 121 l 61 200 b 279 -17 61 81 159 -17 b 496 200 398 -17 496 81 l 496 246 b 426 401 496 307 471 362 b 403 418 418 407 411 413 b 426 435 411 423 418 429 b 496 590 471 474 496 529 z "},"4":{"ha":551,"x_min":0,"x_max":0,"o":"m 433 370 l 433 810 l 360 810 l 62 370 l 61 370 l 61 296 l 360 296 l 360 6 l 433 6 l 433 296 l 517 296 l 517 370 l 433 370 z m 360 370 l 150 370 l 360 679 l 360 370 z "},"5":{"ha":625,"x_min":0,"x_max":0,"o":"m 312 486 b 199 463 275 486 237 481 l 229 735 l 530 735 l 530 810 l 153 810 l 111 388 l 188 358 b 312 410 221 391 265 410 b 488 234 409 410 488 331 b 312 59 488 138 409 59 b 137 234 216 59 137 138 l 61 234 b 312 -17 61 96 174 -17 b 564 234 451 -17 564 96 b 312 486 564 373 451 486 z "},"6":{"ha":566,"x_min":0,"x_max":0,"o":"m 283 427 b 142 376 230 427 180 408 l 150 623 b 286 759 150 698 211 759 b 423 623 362 759 423 698 l 500 623 b 286 835 500 740 404 835 b 73 623 169 835 73 740 b 61 205 73 623 61 208 b 283 -17 61 83 161 -17 b 505 205 405 -17 505 83 b 283 427 505 328 405 427 z m 283 60 b 137 205 203 60 137 125 b 283 351 137 285 203 351 b 429 205 363 351 429 285 b 283 60 429 125 363 60 z "},"7":{"ha":513,"x_min":0,"x_max":0,"o":"m 61 810 l 61 735 l 352 735 b 174 5 255 543 174 206 l 257 5 b 452 747 257 275 355 578 l 452 810 l 61 810 z "},"8":{"ha":581,"x_min":0,"x_max":0,"o":"m 392 418 b 509 612 462 455 509 528 b 290 831 509 732 411 831 b 71 612 170 831 71 732 b 189 418 71 528 119 455 b 61 213 113 380 61 302 b 290 -16 61 86 164 -16 b 519 213 417 -16 519 86 b 392 418 519 302 467 380 z m 142 612 b 290 760 142 694 208 760 b 439 612 372 760 439 694 b 290 463 439 530 372 463 b 142 612 208 463 142 530 z m 290 54 b 132 213 203 54 132 125 b 290 372 132 300 203 372 b 450 213 378 372 450 300 b 290 54 450 125 378 54 z "},"9":{"ha":566,"x_min":0,"x_max":0,"o":"m 505 613 b 283 835 505 736 405 835 b 61 613 161 835 61 736 b 283 391 61 491 161 391 b 428 446 338 391 389 412 l 428 196 b 291 60 428 121 367 60 b 155 196 216 60 155 121 l 78 196 b 291 -17 78 79 174 -17 b 504 196 409 -17 504 79 b 505 613 504 196 505 611 z m 283 468 b 137 613 203 468 137 533 b 283 759 137 694 203 759 b 429 613 363 759 429 694 b 283 468 429 533 363 468 z "},"\u0000":{"ha":0,"x_min":0,"x_max":0,"o":""},"\r":{"ha":475,"x_min":0,"x_max":0,"o":""}," ":{"ha":475,"x_min":0,"x_max":0,"o":""},"Þ":{"ha":481,"x_min":0,"x_max":0,"o":"m 191 629 b 136 622 172 629 153 627 l 136 802 l 61 802 l 61 -1 l 136 -1 l 136 178 b 191 172 153 174 172 172 b 420 400 317 172 420 274 b 191 629 420 526 317 629 z m 191 244 b 136 255 172 244 153 248 l 136 255 l 136 545 l 136 546 b 191 556 153 553 172 556 b 348 400 277 556 348 486 b 191 244 348 314 277 244 z "},",":{"ha":229,"x_min":0,"x_max":0,"o":"m 61 -117 l 121 -117 l 168 81 l 85 81 l 61 -117 z "},"´":{"ha":293,"x_min":0,"x_max":0,"o":"m 61 876 l 121 876 l 232 1021 l 125 1021 l 61 876 z "},"˘":{"ha":478,"x_min":0,"x_max":0,"o":"m 322 1021 l 239 952 l 156 1021 l 61 1021 l 208 876 l 211 876 l 267 876 l 271 876 l 417 1021 l 322 1021 z "},"ˇ":{"ha":478,"x_min":0,"x_max":0,"o":"m 322 1021 l 239 952 l 156 1021 l 61 1021 l 208 876 l 211 876 l 267 876 l 271 876 l 417 1021 l 322 1021 z "},"^":{"ha":558,"x_min":0,"x_max":0,"o":"m 138 579 l 279 896 l 420 579 l 497 579 l 317 982 l 317 982 l 241 982 l 240 982 l 61 579 l 138 579 z "},"‹":{"ha":525,"x_min":0,"x_max":0,"o":"m 464 267 l 147 408 l 464 549 l 464 626 l 61 446 l 61 446 l 61 370 l 61 369 l 464 190 l 464 267 z "},"›":{"ha":525,"x_min":0,"x_max":0,"o":"m 61 267 l 61 190 l 464 369 l 464 370 l 464 446 l 464 446 l 61 626 l 61 549 l 378 408 z "},"«":{"ha":923,"x_min":0,"x_max":0,"o":"m 464 267 l 147 408 l 464 549 l 464 626 l 61 446 l 61 446 l 61 370 l 61 369 l 464 190 l 464 267 z m 862 267 l 545 408 l 862 549 l 862 626 l 459 446 l 459 446 l 459 370 l 459 369 l 862 190 l 862 267 z "},"»":{"ha":923,"x_min":0,"x_max":0,"o":"m 459 190 l 862 369 l 862 370 l 862 446 l 862 446 l 459 626 l 459 549 l 776 408 l 459 267 z m 61 190 l 464 369 l 464 370 l 464 446 l 464 446 l 61 626 l 61 549 l 378 408 l 61 267 z "},"&":{"ha":628,"x_min":0,"x_max":0,"o":"m 594 372 l 571 446 l 291 445 b 134 604 205 445 134 518 b 291 761 134 690 205 761 b 448 604 376 761 448 690 l 520 604 b 291 833 520 730 417 833 b 61 604 164 833 61 730 b 168 409 61 523 104 450 b 61 216 104 368 61 297 b 291 -14 61 89 164 -14 b 520 216 417 -14 520 89 l 520 372 l 594 372 z m 450 216 b 291 57 450 128 378 57 b 132 216 203 57 132 128 b 291 372 132 303 203 372 l 450 372 l 450 216 z "},"§":{"ha":636,"x_min":0,"x_max":0,"o":"m 563 242 b 570 268 566 251 569 260 b 574 299 572 281 574 292 b 564 374 576 328 572 353 b 528 427 556 395 544 412 b 472 466 512 442 494 455 b 404 493 451 476 428 486 l 239 545 b 199 559 224 549 212 553 b 168 581 187 566 177 573 b 163 585 166 583 165 584 b 147 612 157 593 151 602 b 142 653 143 623 141 637 b 142 657 142 654 142 656 b 159 715 144 680 150 700 b 199 755 170 732 183 745 b 254 774 215 764 234 770 b 319 778 275 778 297 779 b 389 764 344 777 367 772 b 446 731 410 756 429 745 b 459 718 450 728 454 723 l 460 716 l 532 739 l 530 741 b 500 774 522 753 511 764 b 420 820 477 793 450 809 b 322 839 389 831 356 837 b 201 825 274 842 233 837 b 125 777 170 812 143 797 b 84 715 105 758 92 737 b 71 656 77 692 72 673 b 81 585 69 629 73 605 b 84 578 81 583 83 581 b 71 520 77 556 72 537 b 81 450 69 493 73 469 b 113 399 88 431 99 414 b 161 366 126 386 142 374 b 219 342 179 357 199 349 l 370 296 b 418 279 386 292 402 286 b 463 253 435 272 450 263 b 479 237 469 248 474 243 b 494 216 485 231 490 224 b 504 167 501 202 505 185 b 503 162 503 165 503 163 b 482 104 501 140 494 120 b 435 64 469 88 454 75 b 375 43 416 54 396 47 b 316 39 353 39 334 38 b 229 53 285 41 255 45 b 159 87 201 60 178 72 b 134 113 149 94 141 104 l 132 115 l 61 92 l 62 90 b 97 48 73 74 84 60 b 184 -1 121 27 150 11 b 297 -21 218 -12 256 -19 b 330 -22 309 -22 319 -22 b 403 -16 357 -22 381 -20 b 478 10 432 -10 458 -1 b 528 48 498 21 515 34 b 556 92 539 62 549 77 b 570 132 564 106 568 119 b 574 163 572 146 574 156 b 564 238 576 192 572 217 b 563 242 564 239 563 241 z m 472 330 b 404 357 451 340 428 350 l 239 409 b 199 424 224 412 212 418 b 168 446 187 430 177 437 b 147 475 159 454 152 464 b 142 512 143 486 142 498 b 161 501 148 508 154 505 b 219 479 179 492 199 485 l 370 432 b 418 414 386 427 402 422 b 463 389 435 408 450 399 b 494 352 475 378 486 366 b 504 311 500 340 503 326 b 472 330 494 318 484 324 z "},"⁄":{"ha":760,"x_min":0,"x_max":0,"o":"m 7 -58 l 93 -58 l 753 876 l 667 876 l 7 -58 z "},"/":{"ha":760,"x_min":0,"x_max":0,"o":"m 7 -58 l 93 -58 l 753 876 l 667 876 l 7 -58 z "},"\\":{"ha":868,"x_min":0,"x_max":0,"o":"m 807 -58 l 147 876 l 61 876 l 721 -58 z "},"Ø":{"ha":931,"x_min":0,"x_max":0,"o":"m 739 734 l 839 876 l 752 876 l 681 775 b 465 833 618 812 544 833 b 41 409 231 833 41 644 b 193 83 41 278 100 161 l 92 -58 l 178 -58 l 250 43 b 465 -16 313 5 387 -16 b 890 409 700 -16 890 174 b 739 734 890 539 831 656 z m 465 57 b 292 103 402 57 343 74 b 235 144 271 115 252 128 b 113 409 161 208 113 303 b 465 761 113 603 271 761 b 639 715 528 761 588 744 b 696 674 659 703 679 690 b 817 409 770 610 817 515 b 465 57 817 215 660 57 z "},"#":{"ha":1069,"x_min":0,"x_max":0,"o":"m 1008 810 l 922 810 l 739 551 l 534 552 l 717 810 l 631 810 l 448 552 l 283 553 l 234 483 l 399 482 l 294 334 l 128 335 l 78 264 l 244 264 l 61 5 l 147 5 l 330 263 l 535 262 l 353 5 l 439 5 l 621 262 l 786 261 l 836 332 l 671 332 l 775 480 l 941 479 l 991 549 l 825 551 l 1008 810 z m 585 332 l 380 334 l 485 481 l 690 481 l 585 332 z "},"£":{"ha":680,"x_min":0,"x_max":0,"o":"m 231 374 l 438 372 l 488 442 l 231 444 b 232 604 232 597 232 601 b 389 761 232 690 303 761 b 547 604 475 761 547 690 l 618 604 b 389 833 618 730 515 833 b 159 607 263 833 161 732 l 159 445 l 64 446 l 14 376 l 159 374 l 159 5 l 231 5 l 618 5 l 618 77 l 231 77 l 231 374 z "},"Ł":{"ha":615,"x_min":0,"x_max":0,"o":"m 172 73 l 172 356 l 280 432 l 280 518 l 172 442 l 172 802 l 98 802 l 98 390 l 0 322 l 0 235 l 98 304 l 98 1 l 98 -1 l 574 -1 l 574 73 l 172 73 z "},"ł":{"ha":758,"x_min":0,"x_max":0,"o":"m 240 73 l 240 356 l 348 432 l 348 518 l 68 322 l 68 235 l 165 304 l 165 1 l 165 -1 l 642 -1 l 642 73 l 240 73 z "},"‰":{"ha":1354,"x_min":0,"x_max":0,"o":"m 659 -16 b 852 178 766 -16 852 72 b 659 372 852 286 766 372 b 465 178 552 372 465 286 b 659 -16 465 72 552 -16 z m 659 306 b 786 178 729 306 786 248 b 659 52 786 109 729 52 b 532 178 589 52 532 109 b 659 306 532 248 589 306 z m 254 446 b 448 639 361 446 448 532 b 254 832 448 745 361 832 b 61 639 148 832 61 745 b 254 446 61 532 148 446 z m 254 765 b 380 639 324 765 380 709 b 254 512 380 569 324 512 b 127 639 184 512 127 569 b 254 765 127 709 184 765 z m 129 5 l 215 5 l 785 810 l 698 810 l 129 5 z m 1099 -16 b 1293 178 1206 -16 1293 72 b 1099 372 1293 286 1206 372 b 905 178 992 372 905 286 b 1099 -16 905 72 992 -16 z m 1099 306 b 1226 178 1169 306 1226 248 b 1099 52 1226 109 1169 52 b 972 178 1029 52 972 109 b 1099 306 972 248 1029 306 z "},"%":{"ha":913,"x_min":0,"x_max":0,"o":"m 659 -16 b 852 178 766 -16 852 72 b 659 372 852 286 766 372 b 465 178 552 372 465 286 b 659 -16 465 72 552 -16 z m 659 306 b 786 178 729 306 786 248 b 659 52 786 109 729 52 b 532 178 589 52 532 109 b 659 306 532 248 589 306 z m 254 446 b 448 639 361 446 448 532 b 254 832 448 745 361 832 b 61 639 148 832 61 745 b 254 446 61 532 148 446 z m 254 765 b 380 639 324 765 380 709 b 254 512 380 569 324 512 b 127 639 184 512 127 569 b 254 765 127 709 184 765 z m 129 5 l 215 5 l 785 810 l 698 810 l 129 5 z "},"Œ":{"ha":1447,"x_min":0,"x_max":0,"o":"m 810 737 l 1385 737 l 1385 811 l 734 811 l 734 739 b 465 833 661 798 567 833 b 41 409 231 833 41 644 b 465 -16 41 174 231 -16 b 734 79 567 -16 661 20 l 734 7 l 734 7 l 1385 7 l 1385 81 l 810 81 l 810 372 l 1080 372 l 1080 446 l 810 446 l 810 737 z m 734 181 b 465 57 669 105 573 57 b 113 409 271 57 113 215 b 465 761 113 603 271 761 b 734 636 573 761 669 713 l 734 181 z "},"Æ":{"ha":1328,"x_min":0,"x_max":0,"o":"m 1267 737 l 1267 811 l 591 810 l 41 5 l 144 5 l 338 296 l 614 296 l 614 7 l 614 7 l 618 7 l 618 5 l 684 5 l 684 7 l 1267 7 l 1267 81 l 691 81 l 691 372 l 960 372 l 960 446 l 691 446 l 691 737 l 1267 737 z m 384 370 l 614 718 l 614 370 l 384 370 z "},"€":{"ha":1021,"x_min":0,"x_max":0,"o":"m 908 160 b 661 58 842 94 754 58 b 327 299 505 58 373 159 l 438 298 l 488 368 l 311 370 b 309 409 310 382 309 396 b 311 444 309 421 310 433 l 529 442 l 579 513 l 326 515 b 661 761 370 657 504 761 b 908 659 754 761 842 724 l 960 710 b 661 833 880 789 773 833 b 250 515 463 833 297 699 l 155 516 l 104 446 l 238 445 b 236 409 237 433 236 421 b 238 370 236 396 237 383 l 64 372 l 14 302 l 251 300 b 661 -15 299 119 465 -15 b 960 109 773 -15 880 28 l 908 160 z "},"Y":{"ha":647,"x_min":0,"x_max":0,"o":"m 633 810 l 541 811 l 322 446 l 106 811 l 14 810 l 281 385 l 281 5 l 365 5 l 365 389 l 633 810 z "},"I":{"ha":224,"x_min":0,"x_max":0,"o":"m 149 810 l 75 810 l 75 8 l 149 8 l 149 810 z "},"O":{"ha":931,"x_min":0,"x_max":0,"o":"m 465 761 b 817 409 660 761 817 603 b 465 57 817 215 660 57 b 113 409 271 57 113 215 b 465 761 113 603 271 761 z m 465 833 b 41 409 226 833 41 644 b 465 -16 41 174 231 -16 b 890 409 700 -16 890 174 b 465 833 890 644 697 833 z "},"Q":{"ha":931,"x_min":0,"x_max":0,"o":"m 890 409 b 465 833 890 644 700 833 b 41 409 231 833 41 644 b 428 -14 41 186 211 5 l 428 -195 l 503 -195 l 503 -14 b 890 409 720 5 890 187 z m 465 57 b 113 409 271 57 113 215 b 465 761 113 603 271 761 b 817 409 660 761 817 603 b 465 57 817 215 660 57 z "},"T":{"ha":708,"x_min":0,"x_max":0,"o":"m 681 810 l 27 810 l 27 735 l 317 735 l 317 5 l 391 5 l 391 735 l 681 735 l 681 810 z "},"N":{"ha":844,"x_min":0,"x_max":0,"o":"m 783 810 l 708 810 l 708 101 l 157 810 l 61 810 l 61 7 l 136 7 l 136 714 l 687 5 l 783 5 l 781 7 l 783 7 l 783 810 z "},"J":{"ha":604,"x_min":0,"x_max":0,"o":"m 90 810 l 90 736 l 469 736 l 469 346 b 79 68 469 317 466 68 l 61 -5 b 543 345 444 -5 543 205 l 543 810 l 90 810 z "},"V":{"ha":848,"x_min":0,"x_max":0,"o":"m 744 810 l 424 92 l 104 810 l 27 810 l 385 5 l 386 5 l 463 5 l 463 5 l 821 810 l 744 810 z "},"W":{"ha":1051,"x_min":0,"x_max":0,"o":"m 947 810 l 627 92 l 564 233 l 821 810 l 744 810 l 526 320 l 307 810 l 231 810 l 488 233 l 424 92 l 104 810 l 27 810 l 385 5 l 386 5 l 463 5 l 463 5 l 526 146 l 589 5 l 589 5 l 665 5 l 666 5 l 1024 810 l 947 810 z "},"R":{"ha":654,"x_min":0,"x_max":0,"o":"m 613 5 l 468 388 b 602 590 557 431 594 500 b 383 809 602 711 500 807 l 61 808 l 61 7 l 137 7 l 137 371 b 395 371 387 371 391 371 l 534 5 l 613 5 z m 137 447 l 137 732 l 378 732 b 525 590 456 732 525 668 b 380 446 525 511 458 446 l 137 447 z "},"S":{"ha":695,"x_min":0,"x_max":0,"o":"m 448 429 l 267 489 b 153 616 196 514 151 546 b 361 762 161 732 267 766 b 524 691 423 758 486 736 l 526 690 l 610 716 b 364 833 552 794 456 828 b 71 619 220 842 81 771 b 243 412 66 510 142 441 l 409 358 b 564 206 484 334 570 293 b 345 57 559 96 432 54 b 132 144 268 61 177 79 l 131 145 l 47 119 b 361 -14 128 15 247 -14 b 647 203 501 -14 635 50 b 448 429 654 332 550 397 z "},"U":{"ha":897,"x_min":0,"x_max":0,"o":"m 836 810 l 763 810 l 764 371 b 448 56 764 197 622 56 b 133 371 275 56 133 197 l 133 810 l 61 810 l 61 371 b 448 -16 61 158 235 -16 b 836 371 662 -16 836 158 l 836 810 z "},"X":{"ha":779,"x_min":0,"x_max":0,"o":"m 718 5 l 432 408 l 717 810 l 631 810 l 389 469 l 148 810 l 62 810 l 346 408 l 61 5 l 147 5 l 389 347 l 631 5 l 718 5 z "},"Z":{"ha":803,"x_min":0,"x_max":0,"o":"m 762 809 l 87 810 l 87 735 l 608 735 l 41 5 l 715 5 l 715 79 l 195 79 l 762 809 z "},"A":{"ha":924,"x_min":0,"x_max":0,"o":"m 507 810 l 416 810 l 41 5 l 130 5 l 266 296 l 659 296 l 794 5 l 883 5 l 507 810 z m 300 370 l 463 718 l 625 370 l 300 370 z "},"B":{"ha":687,"x_min":0,"x_max":0,"o":"m 527 426 b 602 590 572 466 602 525 b 383 809 602 711 503 809 l 61 808 l 61 7 l 433 7 b 653 227 554 7 653 106 b 527 426 653 315 602 391 z m 525 590 b 380 447 525 512 458 447 l 137 447 l 137 732 l 383 732 b 525 590 461 732 525 669 z m 433 83 l 137 83 l 137 371 l 433 371 b 577 227 512 371 577 307 b 433 83 577 148 512 83 z "},"P":{"ha":642,"x_min":0,"x_max":0,"o":"m 602 590 b 383 809 602 713 508 807 l 61 808 l 61 7 l 137 7 l 137 371 l 383 371 b 602 590 512 370 602 472 z m 137 447 l 137 732 l 379 732 b 525 590 457 732 525 668 b 378 447 525 511 456 447 l 137 447 z "},"E":{"ha":774,"x_min":0,"x_max":0,"o":"m 713 737 l 713 811 l 61 811 l 61 7 l 713 7 l 713 81 l 137 81 l 137 372 l 407 372 l 407 446 l 137 446 l 137 737 l 713 737 z "},"F":{"ha":754,"x_min":0,"x_max":0,"o":"m 713 737 l 713 811 l 61 811 l 61 7 l 137 7 l 137 372 l 407 372 l 407 446 l 137 446 l 137 737 l 713 737 z "},"C":{"ha":798,"x_min":0,"x_max":0,"o":"m 458 -15 b 758 109 571 -15 677 28 l 706 160 b 458 58 640 94 551 58 b 106 409 264 58 106 215 b 458 761 106 603 264 761 b 706 659 551 761 640 724 l 758 710 b 458 833 677 789 571 833 b 34 409 224 833 34 643 b 458 -15 34 175 224 -15 z "},"G":{"ha":928,"x_min":0,"x_max":0,"o":"m 767 113 b 887 408 843 189 887 292 l 455 407 l 455 332 l 806 332 b 465 58 763 170 625 58 b 113 409 271 58 113 215 b 465 761 113 603 271 761 b 713 659 558 761 646 724 l 764 710 b 465 833 684 789 578 833 b 41 409 231 833 41 643 b 462 -16 41 170 245 -16 b 767 113 583 -16 690 32 z "},"D":{"ha":776,"x_min":0,"x_max":0,"o":"m 61 810 l 61 7 l 333 7 b 735 409 554 7 735 188 b 334 811 735 631 555 811 z m 137 80 l 137 738 l 335 738 b 663 409 516 738 663 591 b 333 80 663 228 513 80 z "},"M":{"ha":838,"x_min":0,"x_max":0,"o":"m 684 810 l 416 452 l 152 810 l 62 810 l 61 810 l 61 7 l 136 7 l 136 711 l 416 329 l 702 713 l 702 7 l 777 7 l 777 810 l 774 810 l 684 810 z "},"K":{"ha":655,"x_min":0,"x_max":0,"o":"m 614 4 l 614 5 l 203 407 l 614 809 l 613 810 l 512 810 l 136 443 l 136 810 l 61 810 l 61 8 l 136 8 l 136 371 l 511 4 l 614 4 z "},"h":{"ha":924,"x_min":0,"x_max":0,"o":"m 714 593 l 714 450 l 210 450 l 210 593 l 136 593 l 136 224 l 210 224 l 210 376 l 714 376 l 714 224 l 789 224 l 789 593 l 714 593 z "},"e":{"ha":924,"x_min":0,"x_max":0,"o":"m 136 811 l 136 736 l 788 736 l 788 811 l 136 811 z m 136 7 l 788 7 l 788 81 l 136 81 l 136 7 z m 481 446 l 136 446 l 136 371 l 481 371 l 481 446 z "},"f":{"ha":910,"x_min":0,"x_max":0,"o":"m 136 811 l 136 736 l 788 736 l 788 811 l 136 811 z m 136 371 l 481 371 l 481 446 l 136 446 l 136 371 z "},"u":{"ha":1046,"x_min":0,"x_max":0,"o":"m 523 -16 b 910 372 736 -16 910 158 l 910 408 l 838 408 l 838 372 b 523 56 838 198 696 56 b 208 372 349 56 208 198 l 208 408 l 136 408 l 136 372 b 523 -16 136 158 309 -16 z "},"r":{"ha":440,"x_min":0,"x_max":0,"o":"m 168 485 b 294 612 238 485 294 542 b 168 739 294 682 237 739 l 136 739 l 136 485 z m 233 408 l 154 408 l 307 6 l 386 6 l 233 408 z "},"m":{"ha":891,"x_min":0,"x_max":0,"o":"m 663 811 l 444 517 l 228 811 l 136 810 l 444 392 l 755 810 l 663 811 z m 142 5 l 225 5 l 225 80 l 142 80 l 142 5 z m 666 5 l 749 5 l 749 80 l 666 80 l 666 5 z "},"y":{"ha":891,"x_min":0,"x_max":0,"o":"m 755 810 l 663 811 l 444 470 l 228 811 l 136 810 l 444 345 l 755 810 z m 404 5 l 487 5 l 487 80 l 404 80 l 404 5 z "},"l":{"ha":734,"x_min":0,"x_max":0,"o":"m 210 81 l 210 408 l 136 408 l 136 8 l 136 7 l 612 7 l 612 81 l 210 81 z "},"i":{"ha":373,"x_min":0,"x_max":0,"o":"m 149 8 l 224 8 l 224 416 l 149 416 l 149 8 z m 149 811 l 149 703 l 224 703 l 224 811 l 149 811 z "},"o":{"ha":568,"x_min":0,"x_max":0,"o":"m 418 409 b 283 543 418 483 358 543 b 149 409 210 543 149 483 b 283 274 149 334 210 274 b 418 409 358 274 418 334 z "},"q":{"ha":568,"x_min":0,"x_max":0,"o":"m 247 -191 l 321 -191 l 321 8 l 247 8 l 247 -191 z m 283 543 b 149 409 210 543 149 483 b 283 274 149 334 210 274 b 418 409 358 274 418 334 b 283 543 418 483 358 543 z "},"g":{"ha":953,"x_min":0,"x_max":0,"o":"m 554 408 l 554 334 l 817 334 l 817 408 l 554 408 z m 208 409 b 561 762 208 603 367 762 l 561 834 b 136 409 326 834 136 644 b 561 -17 136 174 326 -17 l 561 56 b 208 409 367 56 208 214 z "},"c":{"ha":696,"x_min":0,"x_max":0,"o":"m 561 -17 l 561 56 b 208 409 367 56 208 214 b 561 762 208 603 367 762 l 561 834 b 136 409 326 834 136 644 b 561 -17 136 174 326 -17 z "},"t":{"ha":898,"x_min":0,"x_max":0,"o":"m 776 811 l 122 811 l 122 736 l 412 736 l 412 410 l 486 410 l 486 736 l 776 736 l 776 811 z "},"b":{"ha":435,"x_min":0,"x_max":0,"o":"m 267 601 b 140 728 267 671 210 728 l 140 474 b 267 601 210 474 267 531 z m 171 344 l 136 344 l 136 87 l 171 87 b 300 215 242 87 300 144 b 171 344 300 286 242 344 z "},"n":{"ha":993,"x_min":0,"x_max":0,"o":"m 147 6 l 231 6 l 231 81 l 147 81 l 147 6 z m 846 811 l 762 811 l 762 736 l 846 736 l 846 811 z m 232 811 l 136 811 l 762 6 l 857 6 l 232 811 z "},"z":{"ha":925,"x_min":0,"x_max":0,"o":"m 701 6 l 777 6 l 777 81 l 701 81 l 701 6 z m 224 811 l 149 811 l 149 736 l 224 736 l 224 811 z m 727 811 l 102 6 l 197 6 l 823 811 l 727 811 z "},"s":{"ha":851,"x_min":0,"x_max":0,"o":"m 311 408 l 483 366 b 627 282 537 351 597 332 b 640 200 644 256 644 227 l 714 200 b 700 308 717 237 716 275 b 515 431 667 380 586 413 l 327 477 b 219 548 283 488 237 507 b 214 633 207 574 209 606 l 141 633 b 151 517 132 595 134 551 b 311 408 182 451 248 425 z "},"x":{"ha":928,"x_min":0,"x_max":0,"o":"m 136 6 l 222 6 l 336 166 l 249 166 l 136 6 z m 335 652 l 222 811 l 136 811 l 249 652 l 335 652 z m 678 166 l 592 166 l 705 6 l 792 6 l 678 166 z m 791 811 l 705 811 l 592 652 l 679 652 l 791 811 z "},"j":{"ha":753,"x_min":0,"x_max":0,"o":"m 165 811 l 165 736 l 618 736 l 618 811 l 165 811 z m 154 68 l 136 -4 b 618 345 518 -4 618 206 l 543 345 b 154 68 543 317 541 68 z "},"v":{"ha":1050,"x_min":0,"x_max":0,"o":"m 850 811 l 818 736 l 895 736 l 928 811 l 850 811 z m 122 811 l 480 6 l 558 6 l 199 811 l 122 811 z "},"w":{"ha":1268,"x_min":0,"x_max":0,"o":"m 818 736 l 895 736 l 928 811 l 851 811 l 818 736 z m 122 811 l 480 6 l 558 6 l 199 811 l 122 811 z m 1069 811 l 1036 736 l 1113 736 l 1146 811 l 1069 811 z m 340 811 l 699 6 l 776 6 l 417 811 l 340 811 z "},"p":{"ha":475,"x_min":0,"x_max":0,"o":"m 227 739 l 136 739 l 136 485 l 226 485 b 353 612 296 485 353 542 b 227 739 353 682 296 739 z "},"d":{"ha":888,"x_min":0,"x_max":0,"o":"m 136 810 l 136 738 l 378 738 b 707 409 559 738 707 590 b 378 80 707 227 557 80 l 136 80 l 136 7 l 378 7 b 779 409 600 7 779 187 b 378 810 779 630 600 810 z "},"k":{"ha":740,"x_min":0,"x_max":0,"o":"m 604 7 l 604 7 l 193 410 l 604 811 l 603 813 l 502 813 l 122 442 l 122 376 l 501 7 l 604 7 z "},"a":{"ha":589,"x_min":0,"x_max":0,"o":"m 294 623 l 136 305 l 454 305 l 294 623 z "},"œ":{"ha":1133,"x_min":0,"x_max":0,"o":"m 378 803 l 378 729 l 1031 729 l 1031 803 l 378 803 z m 378 -1 l 1031 -1 l 1031 73 l 378 73 l 378 -1 z m 724 363 l 724 437 l 379 437 b 250 536 363 494 311 536 b 115 401 176 536 115 475 b 250 267 115 326 176 267 b 379 363 311 267 363 307 l 724 363 z "},"æ":{"ha":1173,"x_min":0,"x_max":0,"o":"m 418 803 l 418 729 l 1071 729 l 1071 803 l 418 803 z m 418 -1 l 1071 -1 l 1071 73 l 418 73 l 418 -1 z m 102 279 l 420 279 l 420 363 l 764 363 l 764 437 l 420 437 l 420 596 l 102 279 z "},".":{"ha":219,"x_min":0,"x_max":0,"o":"m 158 44 b 110 93 158 71 136 93 b 61 44 83 93 61 71 b 110 -4 61 18 83 -4 b 158 44 136 -4 158 18 z "},":":{"ha":219,"x_min":0,"x_max":0,"o":"m 158 44 b 110 -4 158 18 136 -4 b 61 44 83 -4 61 18 b 110 93 61 71 83 93 b 158 44 136 93 158 71 z m 110 543 b 61 494 83 543 61 521 b 110 446 61 467 83 446 b 158 494 136 446 158 467 b 110 543 158 521 136 543 z "},";":{"ha":241,"x_min":0,"x_max":0,"o":"m 85 81 l 168 81 l 121 -117 l 61 -117 l 85 81 z m 131 543 b 83 494 104 543 83 521 b 131 446 83 467 104 446 b 180 494 158 446 180 467 b 131 543 180 521 158 543 z "},"?":{"ha":637,"x_min":0,"x_max":0,"o":"m 331 44 b 283 -4 331 18 309 -4 b 234 44 256 -4 234 18 b 283 93 234 71 256 93 b 331 44 309 93 331 71 z m 321 224 l 321 388 l 404 414 b 471 441 427 422 450 431 b 528 480 493 451 511 464 b 565 538 543 496 555 515 b 576 620 574 561 577 588 b 560 688 574 640 569 663 b 513 762 551 715 536 739 b 425 817 491 783 462 802 b 283 833 387 831 340 836 b 169 810 243 831 205 824 b 61 696 125 794 76 747 l 142 694 b 203 750 150 720 178 741 b 286 767 229 760 257 765 b 363 763 312 768 338 767 b 429 739 388 758 410 751 b 477 692 448 728 465 712 b 498 617 489 672 496 647 b 491 567 499 597 497 581 b 467 530 486 552 477 540 b 429 504 456 520 443 511 b 382 486 414 496 399 491 l 244 448 l 244 224 l 321 224 z "},"!":{"ha":249,"x_min":0,"x_max":0,"o":"m 173 44 b 125 -4 173 18 151 -4 b 76 44 98 -4 76 18 b 125 93 76 71 98 93 b 173 44 151 93 173 71 z m 174 810 l 75 810 l 86 224 l 163 224 l 174 810 z "},"(":{"ha":528,"x_min":0,"x_max":0,"o":"m 528 -58 l 505 16 b 134 409 298 27 134 199 b 505 802 134 618 298 791 l 528 876 b 61 409 271 876 61 666 b 528 -58 61 151 271 -58 z "},")":{"ha":528,"x_min":0,"x_max":0,"o":"m 0 -58 b 467 409 257 -58 467 151 b 0 876 467 666 257 876 l 22 802 b 394 409 229 791 394 618 b 22 16 394 199 229 27 l 0 -58 z "},"[":{"ha":310,"x_min":0,"x_max":0,"o":"m 137 18 l 137 800 l 273 800 l 296 876 l 61 876 l 61 -58 l 296 -58 l 273 18 l 137 18 z "},"]":{"ha":310,"x_min":0,"x_max":0,"o":"m 37 18 l 14 -58 l 249 -58 l 249 876 l 14 876 l 37 800 l 173 800 l 173 18 z "},"$":{"ha":695,"x_min":0,"x_max":0,"o":"m 528 397 b 254 489 503 410 476 420 b 149 567 209 504 165 524 b 163 689 134 606 142 656 b 304 761 194 741 254 758 b 513 691 382 761 462 750 l 514 690 l 597 716 l 595 719 b 372 831 539 791 456 822 l 372 934 l 296 934 l 296 833 b 75 688 201 827 104 776 b 70 537 57 640 52 584 b 232 412 99 466 165 432 b 465 337 427 353 446 346 b 564 206 520 315 568 268 b 484 87 562 151 527 111 b 345 57 440 63 393 57 b 132 144 270 61 176 80 l 131 145 l 47 119 l 50 116 b 296 -11 110 31 201 0 l 296 -116 l 372 -116 l 372 -14 b 534 23 430 -13 486 -3 b 647 203 604 61 642 130 b 528 397 652 293 602 359 z "},"*":{"ha":424,"x_min":0,"x_max":0,"o":"m 363 703 l 347 751 l 234 709 l 237 834 l 186 834 l 191 710 l 78 752 l 61 704 l 176 669 l 102 576 l 142 545 l 212 645 l 282 545 l 323 576 l 248 668 l 363 703 z "},"+":{"ha":531,"x_min":0,"x_max":0,"o":"m 470 446 l 302 446 l 302 613 l 229 613 l 229 446 l 61 446 l 61 372 l 229 372 l 229 204 l 302 204 l 302 372 l 470 372 l 470 446 z "},"-":{"ha":531,"x_min":0,"x_max":0,"o":"m 470 372 l 470 446 l 61 446 l 61 372 l 470 372 z "},"=":{"ha":531,"x_min":0,"x_max":0,"o":"m 470 249 l 61 249 l 61 322 l 470 322 l 470 249 z m 470 568 l 61 568 l 61 494 l 470 494 l 470 568 z "},"¥":{"ha":647,"x_min":0,"x_max":0,"o":"m 365 403 l 633 810 l 541 811 l 322 470 l 106 811 l 14 810 l 281 399 l 281 399 l 119 399 l 119 326 l 281 326 l 281 237 l 119 237 l 119 163 l 281 163 l 281 5 l 365 5 l 365 163 l 528 163 l 528 237 l 365 237 l 365 326 l 528 326 l 528 399 l 365 399 l 365 403 z "},"@":{"ha":1040,"x_min":0,"x_max":0,"o":"m 520 867 b 61 408 267 867 61 661 b 520 -52 61 155 267 -52 l 493 20 b 132 408 292 34 132 203 b 520 796 132 622 306 796 b 909 408 734 796 909 622 l 909 250 b 828 152 909 182 855 152 b 740 253 791 152 740 183 b 740 316 740 272 740 293 b 739 408 739 344 739 374 l 739 609 l 669 609 l 669 557 b 520 627 634 608 577 627 b 301 408 399 627 301 528 b 520 189 301 287 399 189 b 669 260 578 189 635 205 b 828 81 669 139 753 81 b 979 250 901 81 979 149 l 979 408 b 520 867 979 661 773 867 z m 520 259 b 372 408 438 259 372 326 b 520 556 372 490 438 556 b 669 408 601 556 666 492 b 520 259 669 324 602 259 z "},"{":{"ha":393,"x_min":0,"x_max":0,"o":"m 245 688 b 329 796 245 768 300 796 l 353 872 b 169 688 251 872 169 789 l 169 555 b 61 447 169 495 120 447 l 61 446 l 61 371 l 61 370 b 169 262 120 370 169 321 l 169 128 b 353 -56 169 27 251 -56 l 329 21 b 245 128 302 21 245 47 l 245 262 b 172 408 245 321 216 375 b 245 555 216 442 245 495 l 245 688 z "},"}":{"ha":393,"x_min":0,"x_max":0,"o":"m 149 688 l 149 555 b 222 408 149 495 177 442 b 149 262 177 375 149 321 l 149 128 b 64 21 149 47 91 21 l 41 -56 b 224 128 142 -56 224 27 l 224 262 b 332 370 224 321 273 370 l 332 371 l 332 446 l 332 447 b 224 555 273 447 224 495 l 224 688 b 41 872 224 789 142 872 l 64 796 b 149 688 94 796 149 768 z "},"~":{"ha":465,"x_min":0,"x_max":0,"o":"m 310 359 b 404 374 334 359 374 363 l 369 441 b 239 442 328 425 275 433 b 61 441 197 454 132 468 l 96 374 b 212 373 136 390 176 383 b 310 359 237 366 277 359 z "},"˜":{"ha":380,"x_min":0,"x_max":0,"o":"m 251 899 b 319 915 271 899 294 903 l 290 981 b 201 983 255 966 233 973 b 61 981 165 994 121 1008 l 91 915 b 179 913 125 931 148 924 b 251 899 200 907 223 899 z "},"¢":{"ha":607,"x_min":0,"x_max":0,"o":"m 494 259 b 345 197 455 219 402 197 b 196 259 289 197 236 219 b 196 557 114 341 114 475 b 494 557 279 640 412 640 l 546 608 b 366 690 496 659 432 686 l 366 761 l 309 761 l 309 689 b 144 609 249 682 191 654 b 144 208 34 498 34 318 b 309 127 190 162 247 134 l 309 57 l 366 57 l 366 125 b 546 208 434 130 497 159 l 494 259 z "},"˚":{"ha":356,"x_min":0,"x_max":0,"o":"m 178 810 b 295 927 243 810 295 863 b 178 1044 295 992 243 1044 b 61 927 113 1044 61 992 b 178 810 61 863 113 810 z m 178 998 b 248 927 217 998 248 966 b 178 857 248 889 217 857 b 108 927 140 857 108 889 b 178 998 108 966 140 998 z "},"¨":{"ha":432,"x_min":0,"x_max":0,"o":"m 166 927 b 113 980 166 956 142 980 b 61 927 85 980 61 956 b 113 875 61 899 85 875 b 166 927 142 875 166 899 z m 371 927 b 319 980 371 956 348 980 b 266 927 290 980 266 956 b 319 875 266 899 290 875 b 371 927 348 875 371 899 z "},"ß":{"ha":784,"x_min":0,"x_max":0,"o":"m 556 426 b 631 602 602 466 631 536 b 412 832 631 722 532 832 l 320 832 b 102 602 200 832 102 722 l 102 7 l 178 7 l 178 602 b 320 756 178 680 242 756 l 412 756 b 554 602 490 756 554 680 b 412 447 554 524 490 447 l 378 447 l 378 371 l 463 371 b 606 215 542 371 606 294 b 463 60 606 136 542 60 l 374 60 l 374 -17 l 463 -17 b 682 215 584 -17 682 94 b 556 426 682 303 631 391 z "},"ø":{"ha":777,"x_min":0,"x_max":0,"o":"m 389 536 b 254 401 314 536 254 475 b 389 267 254 326 314 267 b 523 401 463 267 523 326 b 389 536 523 475 463 536 z m 630 802 l 559 701 b 616 661 579 690 598 676 l 716 802 l 630 802 z m 61 -3 l 147 -3 l 218 98 b 161 138 198 109 179 123 l 61 -3 z "},"ð":{"ha":703,"x_min":0,"x_max":0,"o":"m 552 520 l 602 591 l 481 591 l 481 592 b 338 802 417 721 338 802 l 252 802 b 405 593 252 802 336 719 l 406 591 l 260 592 l 210 522 l 440 521 b 484 386 458 479 474 433 b 331 445 444 422 390 445 b 102 215 205 445 102 342 b 331 -14 102 89 205 -14 b 560 214 457 -14 559 87 b 559 190 561 200 559 191 b 560 192 559 191 560 191 b 513 521 575 313 551 426 l 552 520 z m 331 58 b 174 215 245 58 174 129 b 331 372 174 302 245 372 b 488 215 418 372 488 302 b 331 58 488 129 418 58 z "},"Ð":{"ha":822,"x_min":0,"x_max":0,"o":"m 120 802 l 120 444 l 46 444 l -3 374 l 120 373 l 120 -1 l 393 -1 b 795 400 614 -1 795 179 b 393 802 795 622 614 802 z m 197 71 l 197 373 l 338 373 l 388 444 l 197 444 l 197 729 l 393 729 b 722 400 574 729 722 582 b 393 71 722 219 574 71 z "},"…":{"ha":615,"x_min":0,"x_max":0,"o":"m 158 44 b 110 93 158 71 136 93 b 61 44 83 93 61 71 b 110 -4 61 18 83 -4 b 158 44 136 -4 158 18 z m 353 44 b 304 93 353 71 331 93 b 256 44 277 93 256 71 b 304 -4 256 18 277 -4 b 353 44 331 -4 353 18 z m 554 44 b 506 93 554 71 532 93 b 457 44 479 93 457 71 b 506 -4 457 18 479 -4 b 554 44 532 -4 554 18 z "},"<":{"ha":525,"x_min":0,"x_max":0,"o":"m 464 267 l 147 408 l 464 549 l 464 626 l 61 446 l 61 446 l 61 370 l 61 369 l 464 190 z "},">":{"ha":525,"x_min":0,"x_max":0,"o":"m 61 190 l 464 369 l 464 370 l 464 446 l 464 446 l 61 626 l 61 549 l 378 408 l 61 267 z "},"_":{"ha":710,"x_min":0,"x_max":0,"o":"m 61 5 l 649 5 l 649 80 l 61 80 z "},"`":{"ha":293,"x_min":0,"x_max":0,"o":"m 168 1021 l 61 1021 l 172 876 l 232 876 z "},"|":{"ha":197,"x_min":0,"x_max":0,"o":"m 61 1044 l 61 -191 l 136 -191 l 136 1044 z "},"†":{"ha":531,"x_min":0,"x_max":0,"o":"m 470 765 l 302 765 l 302 1044 l 227 1044 l 227 765 l 61 765 l 61 692 l 227 692 l 227 -191 l 302 -191 l 302 692 l 470 692 z "},"‡":{"ha":531,"x_min":0,"x_max":0,"o":"m 470 754 l 302 754 l 302 1044 l 228 1044 l 228 754 l 61 754 l 61 681 l 228 681 l 228 393 l 61 393 l 61 320 l 228 320 l 228 -191 l 302 -191 l 302 320 l 470 320 l 470 393 l 302 393 l 302 681 l 470 681 z "},"ˆ":{"ha":478,"x_min":0,"x_max":0,"o":"m 417 876 l 271 1021 l 208 1021 l 61 876 l 156 876 l 239 944 l 322 876 z "},"•":{"ha":240,"x_min":0,"x_max":0,"o":"m 179 408 b 120 467 179 441 153 467 b 61 408 87 467 61 441 b 120 349 61 376 87 349 b 179 408 153 349 179 376 z "},"–":{"ha":386,"x_min":0,"x_max":0,"o":"m 325 446 l 61 446 l 61 372 l 325 372 z "},"—":{"ha":649,"x_min":0,"x_max":0,"o":"m 588 446 l 61 446 l 61 372 l 588 372 z "},"¬":{"ha":386,"x_min":0,"x_max":0,"o":"m 325 300 l 325 446 l 61 446 l 61 372 l 252 372 l 252 300 z "},"−":{"ha":531,"x_min":0,"x_max":0,"o":"m 470 446 l 61 446 l 61 372 l 470 372 z "},"±":{"ha":531,"x_min":0,"x_max":0,"o":"m 470 203 l 61 203 l 61 276 l 470 276 z m 470 555 l 302 555 l 302 722 l 229 722 l 229 555 l 61 555 l 61 481 l 229 481 l 229 313 l 302 313 l 302 481 l 470 481 z "},"¸":{"ha":312,"x_min":0,"x_max":0,"o":"m 61 1 b 61 -77 61 1 61 -77 b 117 -107 61 -77 117 -107 b 188 -111 127 -96 173 -83 b 115 -161 203 -141 181 -184 b 98 -204 115 -161 98 -204 b 214 -201 126 -219 166 -234 b 115 -50 290 -147 242 -5 b 136 1 115 -51 136 1 b 61 1 136 1 61 1 z "},"Ç":{"ha":798,"x_min":0,"x_max":0,"o":"m 428 -46 b 440 -15 428 -46 437 -24 b 458 -15 446 -15 452 -15 b 758 109 571 -15 677 28 l 706 160 b 458 58 640 94 551 58 b 106 409 264 58 106 215 b 458 761 106 603 264 761 b 706 659 551 761 640 724 l 758 710 b 458 833 677 789 571 833 b 34 409 224 833 34 643 b 379 -7 34 202 183 30 b 374 -73 379 -30 374 -73 l 430 -104 b 500 -108 440 -92 486 -79 b 428 -157 515 -138 494 -181 b 411 -201 427 -157 411 -201 b 526 -197 439 -216 479 -231 b 428 -46 603 -144 555 -2 z "},"ı":{"ha":224,"x_min":0,"x_max":0,"o":"m 75 8 l 149 8 l 149 416 l 75 416 l 75 8 z m 75 811 l 75 703 l 149 703 l 149 811 l 75 811 z "},"˛":{"ha":369,"x_min":0,"x_max":0,"o":"m 183 1 b 90 1 183 1 90 1 b 130 -191 57 -44 35 -161 b 308 -115 243 -225 308 -115 b 270 -104 308 -115 271 -105 b 159 -129 244 -137 191 -153 b 183 1 117 -97 183 0 z "},"¤":{"ha":548,"x_min":0,"x_max":0,"o":"m 274 488 b 186 400 225 488 186 449 b 274 313 186 352 225 313 b 361 400 323 313 361 352 b 274 488 361 449 323 488 z m 431 661 l 385 595 b 422 569 398 588 410 579 l 487 661 z m 61 138 l 117 138 l 163 203 b 125 230 150 211 138 220 z m 61 661 l 125 569 b 163 595 138 579 150 588 l 117 661 z m 422 230 b 385 203 410 220 398 211 l 431 138 l 487 138 z "},"·":{"ha":219,"x_min":0,"x_max":0,"o":"m 158 441 b 110 490 158 468 136 490 b 61 441 83 490 61 468 b 110 393 61 414 83 393 b 158 441 136 393 158 414 z "},"÷":{"ha":531,"x_min":0,"x_max":0,"o":"m 317 189 b 269 141 317 163 295 141 b 220 189 241 141 220 163 b 269 238 220 216 241 238 b 317 189 295 238 317 216 z m 269 688 b 220 640 241 688 220 666 b 269 591 220 612 241 591 b 317 640 295 591 317 612 b 269 688 317 666 295 688 z m 470 372 l 61 372 l 61 446 l 470 446 z "},"˝":{"ha":471,"x_min":0,"x_max":0,"o":"m 61 876 l 121 876 l 232 1021 l 125 1021 l 61 876 z m 239 876 l 298 876 l 410 1021 l 303 1021 l 239 876 z "},"¦":{"ha":224,"x_min":0,"x_max":0,"o":"m 149 -191 l 149 204 l 75 204 l 75 -191 z m 149 1044 l 149 660 l 75 660 l 75 1044 z "},"¡":{"ha":222,"x_min":0,"x_max":0,"o":"m 159 762 b 111 810 159 789 138 810 b 62 762 84 810 62 789 b 111 713 62 735 84 713 b 159 762 138 713 159 735 z m 161 -4 l 61 -4 l 73 582 l 149 582 l 161 -4 z "},"¿":{"ha":637,"x_min":0,"x_max":0,"o":"m 307 788 b 355 739 307 761 328 739 b 404 788 382 739 404 761 b 355 836 404 814 382 836 b 307 788 328 836 307 814 z m 317 608 l 317 444 l 234 418 b 166 391 210 410 188 401 b 110 352 144 381 126 368 b 73 294 94 336 82 317 b 62 212 64 271 60 244 b 77 144 63 193 68 170 b 124 71 86 117 102 93 b 213 16 146 49 176 30 b 355 -1 251 1 298 -4 b 469 22 395 1 433 8 b 576 136 512 38 562 85 l 495 138 b 434 82 488 113 460 92 b 352 65 408 73 380 67 b 275 69 326 64 300 65 b 208 93 250 74 228 81 b 161 140 189 104 173 120 b 139 215 149 160 141 185 b 146 265 138 235 140 251 b 171 302 152 280 160 292 b 209 328 182 312 195 321 b 256 346 223 336 239 341 l 393 385 l 393 608 l 317 608 z "},"×":{"ha":502,"x_min":0,"x_max":0,"o":"m 439 203 l 293 408 l 441 616 l 355 616 l 250 469 l 147 616 l 61 616 l 207 408 l 62 203 l 148 203 l 250 347 l 352 203 z "},"ç":{"ha":776,"x_min":0,"x_max":0,"o":"m 538 -50 b 553 -16 538 -51 547 -31 b 561 -17 555 -16 558 -17 l 561 56 b 208 409 367 56 208 214 b 561 762 208 603 367 762 l 561 834 b 136 409 326 834 136 644 b 484 -9 136 200 286 26 b 484 -77 484 -31 484 -77 l 541 -108 b 611 -112 551 -96 596 -83 b 538 -161 626 -142 604 -185 b 522 -205 538 -161 522 -205 b 637 -201 549 -220 589 -235 b 538 -50 713 -148 665 -6 z "},"®":{"ha":616,"x_min":0,"x_max":0,"o":"m 308 661 b 518 452 424 661 518 567 b 308 242 518 336 424 242 b 99 452 193 242 99 336 b 308 661 99 567 193 661 z m 308 698 b 61 452 169 698 61 588 b 308 204 61 315 172 204 b 555 452 445 204 555 315 b 308 698 555 588 444 698 z m 425 304 l 372 444 b 418 518 402 459 416 486 b 336 601 418 564 380 601 l 217 601 l 217 304 l 251 304 l 251 436 l 338 436 l 388 304 z m 251 470 l 251 566 l 334 566 b 384 518 361 566 384 545 b 336 470 384 492 362 470 z "},"ª":{"ha":513,"x_min":0,"x_max":0,"o":"m 256 812 l 47 395 l 465 395 l 256 812 z "},"²":{"ha":347,"x_min":0,"x_max":0,"o":"m 120 437 b 269 633 144 466 266 627 l 269 633 b 283 685 279 648 283 667 l 283 697 b 172 809 283 760 233 809 b 61 694 111 809 61 758 l 104 694 b 172 765 106 734 136 765 b 239 697 209 765 239 734 l 239 685 b 227 650 239 673 233 659 l 62 435 l 62 392 l 286 392 l 286 437 z "},"³":{"ha":344,"x_min":0,"x_max":0,"o":"m 283 695 l 283 707 b 172 819 283 770 233 819 b 61 704 111 819 61 768 l 104 704 b 172 775 104 743 135 775 b 239 707 209 775 239 745 l 239 695 b 219 650 239 679 231 661 b 181 632 210 642 194 635 b 134 629 159 629 134 629 l 132 591 b 180 588 132 591 160 591 b 219 571 195 585 209 578 b 239 526 231 559 239 542 l 239 503 b 172 435 239 465 209 435 b 104 506 135 435 104 467 l 61 506 b 172 392 61 443 111 392 b 283 503 233 392 283 441 l 283 526 b 248 604 283 556 270 584 l 239 610 l 247 616 b 283 695 269 636 283 665 z "},"¹":{"ha":225,"x_min":0,"x_max":0,"o":"m 115 814 b 68 775 115 814 110 777 l 61 775 l 61 730 l 115 730 l 115 393 l 164 392 l 164 814 z "},"'":{"ha":197,"x_min":0,"x_max":0,"o":"m 61 924 l 61 703 l 136 703 l 136 924 z "},"\"":{"ha":330,"x_min":0,"x_max":0,"o":"m 61 924 l 61 703 l 136 703 l 136 924 z m 194 924 l 194 703 l 269 703 l 269 924 z "},"’":{"ha":229,"x_min":0,"x_max":0,"o":"m 61 724 l 121 724 l 168 922 l 85 922 z "},"‘":{"ha":229,"x_min":0,"x_max":0,"o":"m 61 -117 l 121 -117 l 168 81 l 85 81 z "},"“":{"ha":366,"x_min":0,"x_max":0,"o":"m 61 -117 l 121 -117 l 168 81 l 85 81 z m 198 -117 l 258 -117 l 304 81 l 222 81 z "},"”":{"ha":366,"x_min":0,"x_max":0,"o":"m 61 726 l 121 726 l 168 924 l 85 924 z m 198 726 l 258 726 l 304 924 l 222 924 z "},"‚":{"ha":229,"x_min":0,"x_max":0,"o":"m 61 -117 l 121 -117 l 168 81 l 85 81 z "},"„":{"ha":366,"x_min":0,"x_max":0,"o":"m 61 -117 l 121 -117 l 168 81 l 85 81 z m 198 -117 l 258 -117 l 304 81 l 222 81 z "},"˙":{"ha":227,"x_min":0,"x_max":0,"o":"m 166 928 b 113 981 166 957 142 981 b 61 928 85 981 61 957 b 113 876 61 899 85 876 b 166 928 142 876 166 899 z "},"™":{"ha":867,"x_min":0,"x_max":0,"o":"m 399 810 l 61 810 l 61 772 l 210 772 l 210 396 l 249 396 l 249 772 l 399 772 l 399 810 z m 758 811 l 619 626 l 484 811 l 437 811 l 436 811 l 436 397 l 475 397 l 475 760 l 619 562 l 766 760 l 766 397 l 806 397 l 806 811 l 804 811 l 758 811 z "},"¼":{"ha":619,"x_min":0,"x_max":0,"o":"m 81 104 l 132 104 l 557 705 l 506 705 z m 517 288 l 517 503 l 475 503 l 328 286 l 328 245 l 474 245 l 474 103 l 517 103 l 517 245 l 558 245 l 558 288 z m 474 288 l 381 288 b 474 425 413 334 444 380 z m 111 705 b 68 669 111 705 106 671 l 61 669 l 61 625 l 111 625 l 111 307 l 159 305 l 159 705 z "},"½":{"ha":662,"x_min":0,"x_max":0,"o":"m 68 104 l 119 104 l 544 705 l 493 705 z m 111 703 b 68 667 111 703 106 669 l 61 667 l 61 624 l 111 624 l 111 309 l 157 307 l 157 703 z m 444 137 b 585 323 480 183 582 317 b 599 371 594 338 599 355 l 599 383 b 493 488 599 441 551 488 b 387 380 435 488 387 439 l 429 380 b 493 446 431 417 459 446 b 556 383 528 446 556 418 l 556 371 b 546 338 556 359 552 348 l 389 135 l 389 94 l 601 94 l 601 137 z "},"¾":{"ha":730,"x_min":0,"x_max":0,"o":"m 167 104 l 218 104 l 644 705 l 592 705 z m 629 282 l 629 493 l 589 493 l 444 280 l 444 239 l 587 239 l 587 100 l 629 100 l 629 239 l 669 239 l 669 282 z m 587 282 l 496 282 b 587 416 528 328 556 370 z m 277 596 l 277 608 b 169 716 277 668 229 716 b 61 605 109 716 61 667 l 104 605 b 169 673 104 642 134 673 b 235 608 205 673 235 644 l 235 596 b 215 551 235 579 227 563 b 178 534 205 544 191 537 b 132 530 157 532 132 530 l 130 494 b 178 492 130 494 158 495 b 215 475 191 489 205 482 b 235 431 227 464 235 448 l 235 408 b 169 343 235 372 205 343 b 104 412 134 343 104 374 l 61 412 b 169 300 61 351 109 300 b 277 408 229 300 277 349 l 277 431 b 241 508 277 460 264 488 l 235 513 l 242 519 l 241 519 b 277 596 264 538 277 566 z "},"ž":{"ha":925,"x_min":0,"x_max":0,"o":"m 701 6 l 777 6 l 777 81 l 701 81 l 701 6 z m 224 811 l 149 811 l 149 736 l 224 736 l 224 811 z m 727 811 l 102 6 l 197 6 l 823 811 l 727 811 z m 555 1021 l 473 952 l 389 1021 l 294 1021 l 441 876 l 444 876 l 500 876 l 504 876 l 650 1021 l 555 1021 z "},"Š":{"ha":695,"x_min":0,"x_max":0,"o":"m 448 429 l 267 489 b 153 616 196 514 151 546 b 361 762 161 732 267 766 b 524 691 423 758 486 736 l 526 690 l 610 716 b 364 833 552 794 456 828 b 71 619 220 842 81 771 b 243 412 66 510 142 441 l 409 358 b 564 206 484 334 570 293 b 345 57 559 96 432 54 b 132 144 268 61 177 79 l 131 145 l 47 119 b 361 -14 128 15 247 -14 b 647 203 501 -14 635 50 b 448 429 654 332 550 397 z m 431 1021 l 348 952 l 264 1021 l 170 1021 l 316 876 l 319 876 l 376 876 l 379 876 l 526 1021 l 431 1021 z "},"ƒ":{"ha":842,"x_min":0,"x_max":0,"o":"m 102 811 l 102 736 l 754 736 l 754 811 l 102 811 z m 102 371 l 448 371 l 448 446 l 102 446 l 102 371 z "},"š":{"ha":783,"x_min":0,"x_max":0,"o":"m 277 408 l 449 366 b 593 282 503 351 564 332 b 606 200 610 256 610 227 l 680 200 b 666 308 683 237 682 275 b 481 431 633 380 552 413 l 293 477 b 185 548 250 488 203 507 b 180 633 173 574 175 606 l 107 633 b 117 517 98 595 100 551 b 277 408 148 451 214 425 z m 507 1021 l 425 952 l 341 1021 l 246 1021 l 393 876 l 396 876 l 452 876 l 456 876 l 602 1021 l 507 1021 z "},"Ÿ":{"ha":647,"x_min":0,"x_max":0,"o":"m 633 810 l 541 811 l 322 446 l 106 811 l 14 810 l 281 385 l 281 5 l 365 5 l 365 389 l 633 810 z m 273 927 b 220 980 273 956 250 980 b 168 927 192 980 168 956 b 220 875 168 899 192 875 b 273 927 250 875 273 899 z m 478 927 b 426 980 478 956 455 980 b 373 927 397 980 373 956 b 426 875 373 899 397 875 b 478 927 455 875 478 899 z "},"À":{"ha":924,"x_min":0,"x_max":0,"o":"m 507 810 l 416 810 l 41 5 l 130 5 l 266 296 l 659 296 l 794 5 l 883 5 l 507 810 z m 300 370 l 463 718 l 625 370 l 300 370 z m 429 1021 l 322 1021 l 433 876 l 493 876 z "},"Á":{"ha":924,"x_min":0,"x_max":0,"o":"m 507 810 l 416 810 l 41 5 l 130 5 l 266 296 l 659 296 l 794 5 l 883 5 l 507 810 z m 300 370 l 463 718 l 625 370 l 300 370 z m 441 876 l 500 876 l 612 1021 l 505 1021 l 441 876 z "},"Â":{"ha":924,"x_min":0,"x_max":0,"o":"m 507 810 l 416 810 l 41 5 l 130 5 l 266 296 l 659 296 l 794 5 l 883 5 l 507 810 z m 300 370 l 463 718 l 625 370 l 300 370 z m 640 876 l 494 1021 l 431 1021 l 284 876 l 379 876 l 463 944 l 545 876 z "},"Ä":{"ha":924,"x_min":0,"x_max":0,"o":"m 507 810 l 416 810 l 41 5 l 130 5 l 266 296 l 659 296 l 794 5 l 883 5 l 507 810 z m 300 370 l 463 718 l 625 370 l 300 370 z m 412 927 b 359 980 412 956 389 980 b 307 927 331 980 307 956 b 359 875 307 899 331 875 b 412 927 389 875 412 899 z m 617 927 b 565 980 617 956 594 980 b 512 927 536 980 512 956 b 565 875 512 899 536 875 b 617 927 594 875 617 899 z "},"Å":{"ha":924,"x_min":0,"x_max":0,"o":"m 507 810 l 416 810 l 41 5 l 130 5 l 266 296 l 659 296 l 794 5 l 883 5 l 507 810 z m 300 370 l 463 718 l 625 370 l 300 370 z m 463 814 b 579 931 527 814 579 867 b 463 1048 579 996 527 1048 b 345 931 397 1048 345 996 b 463 814 345 867 397 814 z m 463 1002 b 532 931 501 1002 532 970 b 463 861 532 893 501 861 b 392 931 424 861 392 893 b 463 1002 392 970 424 1002 z "},"È":{"ha":774,"x_min":0,"x_max":0,"o":"m 713 737 l 713 811 l 61 811 l 61 7 l 713 7 l 713 81 l 137 81 l 137 372 l 407 372 l 407 446 l 137 446 l 137 737 l 713 737 z m 408 1021 l 302 1021 l 413 876 l 473 876 z "},"É":{"ha":774,"x_min":0,"x_max":0,"o":"m 713 737 l 713 811 l 61 811 l 61 7 l 713 7 l 713 81 l 137 81 l 137 372 l 407 372 l 407 446 l 137 446 l 137 737 l 713 737 z m 302 876 l 361 876 l 473 1021 l 366 1021 l 302 876 z "},"Ê":{"ha":774,"x_min":0,"x_max":0,"o":"m 713 737 l 713 811 l 61 811 l 61 7 l 713 7 l 713 81 l 137 81 l 137 372 l 407 372 l 407 446 l 137 446 l 137 737 l 713 737 z m 565 876 l 418 1021 l 355 1021 l 209 876 l 304 876 l 387 944 l 470 876 z "},"Ë":{"ha":774,"x_min":0,"x_max":0,"o":"m 713 737 l 713 811 l 61 811 l 61 7 l 713 7 l 713 81 l 137 81 l 137 372 l 407 372 l 407 446 l 137 446 l 137 737 l 713 737 z m 337 927 b 284 980 337 956 313 980 b 232 927 256 980 232 956 b 284 875 232 899 256 875 b 337 927 313 875 337 899 z m 542 927 b 490 980 542 956 519 980 b 437 927 460 980 437 956 b 490 875 437 899 460 875 b 542 927 519 875 542 899 z "},"Ì":{"ha":239,"x_min":0,"x_max":0,"o":"m 152 810 l 152 8 l 77 8 l 77 810 l 152 810 z m 93 1021 l -14 1021 l 98 876 l 157 876 z "},"Î":{"ha":248,"x_min":0,"x_max":0,"o":"m 161 810 l 161 8 l 86 8 l 86 810 l 161 810 z m 302 876 l 155 1021 l 92 1021 l -54 876 l 41 876 l 124 944 l 207 876 z "},"Ï":{"ha":256,"x_min":0,"x_max":0,"o":"m 165 810 l 165 8 l 90 8 l 90 810 l 165 810 z m 78 927 b 25 980 78 956 54 980 b -27 927 -3 980 -27 956 b 25 875 -27 899 -3 875 b 78 927 54 875 78 899 z m 283 927 b 231 980 283 956 260 980 b 178 927 201 980 178 956 b 231 875 178 899 201 875 b 283 927 260 875 283 899 z "},"Ñ":{"ha":844,"x_min":0,"x_max":0,"o":"m 783 810 l 708 810 l 708 101 l 157 810 l 61 810 l 61 7 l 136 7 l 136 714 l 687 5 l 783 5 l 781 7 l 783 7 l 783 810 z m 482 899 b 551 915 503 899 526 903 l 521 981 b 433 983 486 966 464 973 b 292 981 397 994 353 1008 l 322 915 b 410 913 357 931 379 924 b 482 899 431 907 454 899 z "},"Ò":{"ha":931,"x_min":0,"x_max":0,"o":"m 465 761 b 817 409 660 761 817 603 b 465 57 817 215 660 57 b 113 409 271 57 113 215 b 465 761 113 603 271 761 z m 465 833 b 41 409 226 833 41 644 b 465 -16 41 174 231 -16 b 890 409 700 -16 890 174 b 465 833 890 644 697 833 z m 407 1021 l 300 1021 l 412 876 l 471 876 z "},"Ó":{"ha":931,"x_min":0,"x_max":0,"o":"m 465 761 b 817 409 660 761 817 603 b 465 57 817 215 660 57 b 113 409 271 57 113 215 b 465 761 113 603 271 761 z m 465 833 b 41 409 226 833 41 644 b 465 -16 41 174 231 -16 b 890 409 700 -16 890 174 b 465 833 890 644 697 833 z m 471 876 l 530 876 l 642 1021 l 535 1021 l 471 876 z "},"Ô":{"ha":931,"x_min":0,"x_max":0,"o":"m 465 761 b 817 409 660 761 817 603 b 465 57 817 215 660 57 b 113 409 271 57 113 215 b 465 761 113 603 271 761 z m 465 833 b 41 409 226 833 41 644 b 465 -16 41 174 231 -16 b 890 409 700 -16 890 174 b 465 833 890 644 697 833 z m 644 876 l 497 1021 l 434 1021 l 288 876 l 382 876 l 466 944 l 549 876 z "},"Ö":{"ha":931,"x_min":0,"x_max":0,"o":"m 465 761 b 817 409 660 761 817 603 b 465 57 817 215 660 57 b 113 409 271 57 113 215 b 465 761 113 603 271 761 z m 465 833 b 41 409 226 833 41 644 b 465 -16 41 174 231 -16 b 890 409 700 -16 890 174 b 465 833 890 644 697 833 z m 416 927 b 363 980 416 956 392 980 b 311 927 334 980 311 956 b 363 875 311 899 334 875 b 416 927 392 875 416 899 z m 621 927 b 568 980 621 956 597 980 b 515 927 539 980 515 956 b 568 875 515 899 539 875 b 621 927 597 875 621 899 z "},"Õ":{"ha":931,"x_min":0,"x_max":0,"o":"m 465 761 b 817 409 660 761 817 603 b 465 57 817 215 660 57 b 113 409 271 57 113 215 b 465 761 113 603 271 761 z m 465 833 b 41 409 226 833 41 644 b 465 -16 41 174 231 -16 b 890 409 700 -16 890 174 b 465 833 890 644 697 833 z m 526 899 b 595 915 547 899 570 903 l 565 981 b 477 983 530 966 508 973 b 336 981 441 994 397 1008 l 366 915 b 454 913 401 931 423 924 b 526 899 475 907 498 899 z "},"Ù":{"ha":897,"x_min":0,"x_max":0,"o":"m 836 810 l 763 810 l 764 371 b 448 56 764 197 622 56 b 133 371 275 56 133 197 l 133 810 l 61 810 l 61 371 b 448 -16 61 158 235 -16 b 836 371 662 -16 836 158 l 836 810 z m 404 1021 l 297 1021 l 408 876 l 468 876 z "},"Ú":{"ha":897,"x_min":0,"x_max":0,"o":"m 836 810 l 763 810 l 764 371 b 448 56 764 197 622 56 b 133 371 275 56 133 197 l 133 810 l 61 810 l 61 371 b 448 -16 61 158 235 -16 b 836 371 662 -16 836 158 l 836 810 z m 431 876 l 490 876 l 602 1021 l 495 1021 l 431 876 z "},"Û":{"ha":897,"x_min":0,"x_max":0,"o":"m 836 810 l 763 810 l 764 371 b 448 56 764 197 622 56 b 133 371 275 56 133 197 l 133 810 l 61 810 l 61 371 b 448 -16 61 158 235 -16 b 836 371 662 -16 836 158 l 836 810 z m 626 876 l 479 1021 l 416 1021 l 270 876 l 365 876 l 448 944 l 531 876 z "},"Ü":{"ha":897,"x_min":0,"x_max":0,"o":"m 836 810 l 763 810 l 764 371 b 448 56 764 197 622 56 b 133 371 275 56 133 197 l 133 810 l 61 810 l 61 371 b 448 -16 61 158 235 -16 b 836 371 662 -16 836 158 l 836 810 z m 402 927 b 349 980 402 956 378 980 b 297 927 321 980 297 956 b 349 875 297 899 321 875 b 402 927 378 875 402 899 z m 607 927 b 555 980 607 956 584 980 b 502 927 526 980 502 956 b 555 875 502 899 526 875 b 607 927 584 875 607 899 z "},"Ý":{"ha":647,"x_min":0,"x_max":0,"o":"m 633 810 l 541 811 l 322 446 l 106 811 l 14 810 l 281 385 l 281 5 l 365 5 l 365 389 l 633 810 z m 318 876 l 378 876 l 489 1021 l 382 1021 l 318 876 z "},"à":{"ha":527,"x_min":0,"x_max":0,"o":"m 266 623 l 425 305 l 107 305 l 266 623 z m 208 1021 l 102 1021 l 213 876 l 273 876 z "},"á":{"ha":534,"x_min":0,"x_max":0,"o":"m 260 623 l 420 305 l 102 305 l 260 623 z m 261 876 l 321 876 l 432 1021 l 326 1021 l 261 876 z "},"â":{"ha":532,"x_min":0,"x_max":0,"o":"m 264 623 l 423 305 l 105 305 l 264 623 z m 444 876 l 298 1021 l 235 1021 l 88 876 l 183 876 l 267 944 l 349 876 z "},"ã":{"ha":522,"x_min":0,"x_max":0,"o":"m 260 623 l 102 305 l 420 305 z m 322 899 b 391 915 342 899 366 903 l 361 981 b 273 983 326 966 304 973 b 132 981 237 994 193 1008 l 162 915 b 250 913 197 931 219 924 b 322 899 271 907 294 899 z "},"ä":{"ha":522,"x_min":0,"x_max":0,"o":"m 260 623 l 420 305 l 102 305 l 260 623 z m 212 927 b 159 980 212 956 189 980 b 107 927 131 980 107 956 b 159 875 107 899 131 875 b 212 927 189 875 212 899 z m 417 927 b 365 980 417 956 394 980 b 312 927 336 980 312 956 b 365 875 312 899 336 875 b 417 927 394 875 417 899 z "},"å":{"ha":522,"x_min":0,"x_max":0,"o":"m 260 623 l 102 305 l 420 305 z m 262 810 b 379 927 327 810 379 863 b 262 1044 379 992 327 1044 b 145 927 197 1044 145 992 b 262 810 145 863 197 810 z m 262 998 b 332 927 301 998 332 966 b 262 857 332 889 301 857 b 192 927 224 857 192 889 b 262 998 192 966 224 998 z "},"è":{"ha":924,"x_min":0,"x_max":0,"o":"m 136 811 l 136 736 l 788 736 l 788 811 l 136 811 z m 136 7 l 788 7 l 788 81 l 136 81 l 136 7 z m 481 446 l 136 446 l 136 371 l 481 371 l 481 446 z m 422 1021 l 315 1021 l 427 876 l 486 876 z "},"é":{"ha":924,"x_min":0,"x_max":0,"o":"m 136 811 l 136 736 l 788 736 l 788 811 l 136 811 z m 136 7 l 788 7 l 788 81 l 136 81 l 136 7 z m 481 446 l 136 446 l 136 371 l 481 371 l 481 446 z m 440 876 l 500 876 l 611 1021 l 505 1021 l 440 876 z "},"ê":{"ha":924,"x_min":0,"x_max":0,"o":"m 136 811 l 136 736 l 788 736 l 788 811 l 136 811 z m 136 7 l 788 7 l 788 81 l 136 81 l 136 7 z m 481 446 l 136 446 l 136 371 l 481 371 l 481 446 z m 640 876 l 494 1021 l 431 1021 l 284 876 l 379 876 l 463 944 l 545 876 z "},"ë":{"ha":924,"x_min":0,"x_max":0,"o":"m 136 811 l 136 736 l 788 736 l 788 811 l 136 811 z m 136 7 l 788 7 l 788 81 l 136 81 l 136 7 z m 481 446 l 136 446 l 136 371 l 481 371 l 481 446 z m 412 927 b 359 980 412 956 389 980 b 307 927 331 980 307 956 b 359 875 307 899 331 875 b 412 927 389 875 412 899 z m 617 927 b 565 980 617 956 594 980 b 512 927 536 980 512 956 b 565 875 512 899 536 875 b 617 927 594 875 617 899 z "},"ì":{"ha":347,"x_min":0,"x_max":0,"o":"m 137 8 l 212 8 l 212 416 l 137 416 l 137 8 z m 137 811 l 137 703 l 212 703 l 212 811 l 137 811 z m 147 1021 l 41 1021 l 152 876 l 212 876 z "},"í":{"ha":359,"x_min":0,"x_max":0,"o":"m 136 8 l 210 8 l 210 416 l 136 416 l 136 8 z m 136 811 l 136 703 l 210 703 l 210 811 l 136 811 z m 148 876 l 208 876 l 319 1021 l 212 1021 l 148 876 z "},"î":{"ha":370,"x_min":0,"x_max":0,"o":"m 144 8 l 219 8 l 219 416 l 144 416 l 144 8 z m 144 811 l 144 703 l 219 703 l 219 811 l 144 811 z m 363 876 l 216 1021 l 153 1021 l 7 876 l 102 876 l 185 944 l 268 876 z "},"ï":{"ha":364,"x_min":0,"x_max":0,"o":"m 142 8 l 217 8 l 217 416 l 142 416 l 142 8 z m 142 811 l 142 703 l 217 703 l 217 811 l 142 811 z m 132 927 b 79 980 132 956 109 980 b 27 927 51 980 27 956 b 79 875 27 899 51 875 b 132 927 109 875 132 899 z m 337 927 b 285 980 337 956 314 980 b 232 927 256 980 232 956 b 285 875 232 899 256 875 b 337 927 314 875 337 899 z "},"ñ":{"ha":993,"x_min":0,"x_max":0,"o":"m 147 6 l 231 6 l 231 81 l 147 81 l 147 6 z m 846 811 l 762 811 l 762 736 l 846 736 l 846 811 z m 232 811 l 136 811 l 762 6 l 857 6 l 232 811 z m 568 899 b 637 915 589 899 612 903 l 607 981 b 519 983 572 966 550 973 b 378 981 483 994 439 1008 l 408 915 b 496 913 443 931 465 924 b 568 899 517 907 541 899 z "},"ò":{"ha":566,"x_min":0,"x_max":0,"o":"m 416 409 b 281 274 416 334 356 274 b 147 409 208 274 147 334 b 281 543 147 483 208 543 b 416 409 356 543 416 483 z m 242 1021 l 136 1021 l 247 876 l 307 876 z "},"ó":{"ha":570,"x_min":0,"x_max":0,"o":"m 418 409 b 283 274 418 334 358 274 b 149 409 210 274 149 334 b 283 543 149 483 210 543 b 418 409 358 543 418 483 z m 277 876 l 337 876 l 448 1021 l 342 1021 l 277 876 z "},"ô":{"ha":573,"x_min":0,"x_max":0,"o":"m 419 409 b 284 274 419 334 359 274 b 150 409 210 274 150 334 b 284 543 150 483 210 543 b 419 409 359 543 419 483 z m 465 876 l 318 1021 l 255 1021 l 109 876 l 203 876 l 287 944 l 370 876 z "},"õ":{"ha":568,"x_min":0,"x_max":0,"o":"m 418 409 b 283 543 418 483 358 543 b 149 409 210 543 149 483 b 283 274 149 334 210 274 b 418 409 358 274 418 334 z m 355 899 b 423 915 375 899 398 903 l 393 981 b 305 983 359 966 336 973 b 165 981 269 994 225 1008 l 195 915 b 283 913 229 931 252 924 b 355 899 304 907 327 899 z "},"ö":{"ha":608,"x_min":0,"x_max":0,"o":"m 432 409 b 297 274 432 334 372 274 b 163 409 223 274 163 334 b 297 543 163 483 223 543 b 432 409 372 543 432 483 z m 254 927 b 201 980 254 956 231 980 b 149 927 173 980 149 956 b 201 875 149 899 173 875 b 254 927 231 875 254 899 z m 459 927 b 407 980 459 956 436 980 b 354 927 378 980 354 956 b 407 875 354 899 378 875 b 459 927 436 875 459 899 z "},"ù":{"ha":1046,"x_min":0,"x_max":0,"o":"m 523 -16 b 136 372 309 -16 136 158 l 136 408 l 208 408 l 208 372 b 523 56 208 198 349 56 b 838 372 696 56 838 198 l 838 408 l 910 408 l 910 372 b 523 -16 910 158 736 -16 z m 490 1021 l 383 1021 l 494 876 l 554 876 z "},"ú":{"ha":1046,"x_min":0,"x_max":0,"o":"m 523 -16 b 136 372 309 -16 136 158 l 136 408 l 208 408 l 208 372 b 523 56 208 198 349 56 b 838 372 696 56 838 198 l 838 408 l 910 408 l 910 372 b 523 -16 910 158 736 -16 z m 532 876 l 591 876 l 703 1021 l 596 1021 l 532 876 z "},"û":{"ha":1046,"x_min":0,"x_max":0,"o":"m 523 -16 b 136 372 309 -16 136 158 l 136 408 l 208 408 l 208 372 b 523 56 208 198 349 56 b 838 372 696 56 838 198 l 838 408 l 910 408 l 910 372 b 523 -16 910 158 736 -16 z m 707 876 l 560 1021 l 497 1021 l 351 876 l 446 876 l 529 944 l 612 876 z "},"ü":{"ha":1046,"x_min":0,"x_max":0,"o":"m 523 -16 b 136 372 309 -16 136 158 l 136 408 l 208 408 l 208 372 b 523 56 208 198 349 56 b 838 372 696 56 838 198 l 838 408 l 910 408 l 910 372 b 523 -16 910 158 736 -16 z m 471 927 b 418 980 471 956 448 980 b 366 927 390 980 366 956 b 418 875 366 899 390 875 b 471 927 448 875 471 899 z m 676 927 b 624 980 676 956 653 980 b 571 927 595 980 571 956 b 624 875 571 899 595 875 b 676 927 653 875 676 899 z "},"ý":{"ha":891,"x_min":0,"x_max":0,"o":"m 755 810 l 663 811 l 444 470 l 228 811 l 136 810 l 444 345 l 755 810 z m 404 5 l 487 5 l 487 80 l 404 80 l 404 5 z m 438 876 l 498 876 l 609 1021 l 503 1021 l 438 876 z "},"ÿ":{"ha":891,"x_min":0,"x_max":0,"o":"m 755 810 l 663 811 l 444 470 l 228 811 l 136 810 l 444 345 l 755 810 z m 404 5 l 487 5 l 487 80 l 404 80 l 404 5 z m 394 927 b 341 980 394 956 370 980 b 289 927 313 980 289 956 b 341 875 289 899 313 875 b 394 927 370 875 394 899 z m 599 927 b 547 980 599 956 576 980 b 494 927 517 980 494 956 b 547 875 494 899 517 875 b 599 927 576 875 599 899 z "},"þ":{"ha":475,"x_min":0,"x_max":0,"o":"m 136 802 l 61 802 l 61 -1 l 136 -1 z m 279 536 b 145 401 205 536 145 475 b 279 267 145 326 205 267 b 414 401 354 267 414 326 b 279 536 414 475 354 536 z "},"º":{"ha":542,"x_min":0,"x_max":0,"o":"m 481 606 b 271 815 481 721 387 815 b 61 606 155 815 61 721 b 271 395 61 490 155 395 b 481 606 387 395 481 490 z "},"µ":{"ha":897,"x_min":0,"x_max":0,"o":"m 133 146 b 448 -16 133 147 235 -16 b 836 372 662 -16 836 158 l 836 408 l 764 408 l 764 372 b 448 56 764 198 622 56 b 133 372 275 56 133 198 l 133 408 l 61 408 l 61 -191 b 133 -191 61 -191 133 -191 b 133 146 133 -191 133 146 z "},"°":{"ha":396,"x_min":0,"x_max":0,"o":"m 335 788 b 197 924 335 863 273 924 b 61 788 122 924 61 863 b 197 650 61 712 122 650 b 335 788 273 650 335 712 z "},"¯":{"ha":350,"x_min":0,"x_max":0,"o":"m 289 998 l 61 998 l 61 924 l 289 924 z "},"Ă":{"ha":937,"x_min":0,"x_max":0,"o":"m 514 810 l 423 810 l 47 5 l 137 5 l 273 296 l 665 296 l 801 5 l 890 5 l 514 810 z m 307 370 l 469 718 l 631 370 l 307 370 z m 552 1021 l 469 952 l 386 1021 l 291 1021 l 437 876 l 441 876 l 497 876 l 500 876 l 647 1021 l 552 1021 z "},"Ā":{"ha":937,"x_min":0,"x_max":0,"o":"m 514 810 l 423 810 l 47 5 l 137 5 l 273 296 l 665 296 l 801 5 l 890 5 l 514 810 z m 307 370 l 469 718 l 631 370 l 307 370 z m 583 998 l 355 998 l 355 924 l 583 924 z "},"Ą":{"ha":944,"x_min":0,"x_max":0,"o":"m 987 -100 b 877 -124 962 -132 909 -149 b 901 5 836 -92 900 2 l 526 810 l 423 810 l 47 5 l 142 5 l 278 296 l 671 296 l 806 5 l 807 5 b 847 -186 774 -39 752 -157 b 1025 -110 960 -220 1025 -110 b 987 -100 1025 -110 988 -100 z m 312 370 l 475 718 l 637 370 l 312 370 z "},"Ã":{"ha":924,"x_min":0,"x_max":0,"o":"m 507 810 l 416 810 l 41 5 l 130 5 l 266 296 l 659 296 l 794 5 l 883 5 l 507 810 z m 300 370 l 463 718 l 625 370 l 300 370 z m 523 899 b 591 915 543 899 566 903 l 562 981 b 473 983 527 966 505 973 b 333 981 437 994 393 1008 l 363 915 b 451 913 397 931 420 924 b 523 899 472 907 495 899 z "},"ă":{"ha":519,"x_min":0,"x_max":0,"o":"m 254 623 l 414 305 l 96 305 l 254 623 z m 342 1021 l 260 952 l 176 1021 l 81 1021 l 228 876 l 231 876 l 288 876 l 291 876 l 437 1021 l 342 1021 z "},"ā":{"ha":522,"x_min":0,"x_max":0,"o":"m 260 623 l 102 305 l 420 305 z m 378 998 l 150 998 l 150 924 l 378 924 z "},"ą":{"ha":516,"x_min":0,"x_max":0,"o":"m 260 623 l 102 305 l 420 305 z m 323 1 b 230 1 323 1 230 1 b 270 -191 197 -44 175 -161 b 448 -115 383 -225 448 -115 b 410 -104 448 -115 411 -105 b 300 -129 385 -137 332 -153 b 323 1 258 -97 323 0 z "},"Ć":{"ha":798,"x_min":0,"x_max":0,"o":"m 458 -15 b 34 409 224 -15 34 175 b 458 833 34 643 224 833 b 758 710 571 833 677 789 l 706 659 b 458 761 640 724 551 761 b 106 409 264 761 106 603 b 458 58 106 215 264 58 b 706 160 551 58 640 94 l 758 109 b 458 -15 677 28 571 -15 z m 440 876 l 500 876 l 611 1021 l 505 1021 l 440 876 z "},"Č":{"ha":798,"x_min":0,"x_max":0,"o":"m 458 -15 b 34 409 224 -15 34 175 b 458 833 34 643 224 833 b 758 710 571 833 677 789 l 706 659 b 458 761 640 724 551 761 b 106 409 264 761 106 603 b 458 58 106 215 264 58 b 706 160 551 58 640 94 l 758 109 b 458 -15 677 28 571 -15 z m 546 1021 l 463 952 l 380 1021 l 285 1021 l 431 876 l 435 876 l 491 876 l 494 876 l 641 1021 l 546 1021 z "},"Ĉ":{"ha":798,"x_min":0,"x_max":0,"o":"m 458 -15 b 34 409 224 -15 34 175 b 458 833 34 643 224 833 b 758 710 571 833 677 789 l 706 659 b 458 761 640 724 551 761 b 106 409 264 761 106 603 b 458 58 106 215 264 58 b 706 160 551 58 640 94 l 758 109 b 458 -15 677 28 571 -15 z m 630 876 l 484 1021 l 420 1021 l 274 876 l 369 876 l 452 944 l 535 876 z "},"Ċ":{"ha":798,"x_min":0,"x_max":0,"o":"m 458 -15 b 34 409 224 -15 34 175 b 458 833 34 643 224 833 b 758 710 571 833 677 789 l 706 659 b 458 761 640 724 551 761 b 106 409 264 761 106 603 b 458 58 106 215 264 58 b 706 160 551 58 640 94 l 758 109 b 458 -15 677 28 571 -15 z m 519 928 b 467 981 519 957 496 981 b 414 928 438 981 414 957 b 467 876 414 899 438 876 b 519 928 496 876 519 899 z "},"Ď":{"ha":776,"x_min":0,"x_max":0,"o":"m 61 810 l 61 7 l 333 7 b 735 409 554 7 735 188 b 334 811 735 631 555 811 z m 137 80 l 137 738 l 335 738 b 663 409 516 738 663 591 b 333 80 663 228 513 80 z m 370 1021 l 288 952 l 204 1021 l 109 1021 l 256 876 l 259 876 l 315 876 l 319 876 l 465 1021 l 370 1021 z "},"Ĕ":{"ha":774,"x_min":0,"x_max":0,"o":"m 713 737 l 713 811 l 61 811 l 61 7 l 713 7 l 713 81 l 137 81 l 137 372 l 407 372 l 407 446 l 137 446 l 137 737 l 713 737 z m 470 1021 l 387 952 l 304 1021 l 209 1021 l 355 876 l 359 876 l 415 876 l 418 876 l 565 1021 l 470 1021 z "},"Ě":{"ha":774,"x_min":0,"x_max":0,"o":"m 713 737 l 713 811 l 61 811 l 61 7 l 713 7 l 713 81 l 137 81 l 137 372 l 407 372 l 407 446 l 137 446 l 137 737 l 713 737 z m 470 1021 l 387 952 l 304 1021 l 209 1021 l 355 876 l 359 876 l 415 876 l 418 876 l 565 1021 l 470 1021 z "},"Ė":{"ha":774,"x_min":0,"x_max":0,"o":"m 713 737 l 713 811 l 61 811 l 61 7 l 713 7 l 713 81 l 137 81 l 137 372 l 407 372 l 407 446 l 137 446 l 137 737 l 713 737 z m 439 928 b 387 981 439 957 416 981 b 334 928 358 981 334 957 b 387 876 334 899 358 876 b 439 928 416 876 439 899 z "},"Ē":{"ha":774,"x_min":0,"x_max":0,"o":"m 713 737 l 713 811 l 61 811 l 61 7 l 713 7 l 713 81 l 137 81 l 137 372 l 407 372 l 407 446 l 137 446 l 137 737 l 713 737 z m 501 998 l 273 998 l 273 924 l 501 924 z "},"Ę":{"ha":777,"x_min":0,"x_max":0,"o":"m 800 -98 b 690 -123 774 -131 722 -147 b 713 7 648 -92 711 3 b 713 81 713 12 713 9 l 137 81 l 137 372 l 407 372 l 407 446 l 137 446 l 137 737 l 713 737 l 713 811 l 61 811 l 61 7 l 61 7 l 620 7 b 660 -184 587 -38 565 -155 b 838 -109 773 -219 838 -109 b 800 -98 838 -109 801 -99 z "},"Ğ":{"ha":928,"x_min":0,"x_max":0,"o":"m 767 113 b 887 408 843 189 887 292 l 455 407 l 455 332 l 806 332 b 465 58 763 170 625 58 b 113 409 271 58 113 215 b 465 761 113 603 271 761 b 713 659 558 761 646 724 l 764 710 b 465 833 684 789 578 833 b 41 409 231 833 41 643 b 462 -16 41 170 245 -16 b 767 113 583 -16 690 32 z m 547 1021 l 464 952 l 380 1021 l 286 1021 l 432 876 l 435 876 l 492 876 l 495 876 l 642 1021 l 547 1021 z "},"Ĝ":{"ha":928,"x_min":0,"x_max":0,"o":"m 767 113 b 887 408 843 189 887 292 l 455 407 l 455 332 l 806 332 b 465 58 763 170 625 58 b 113 409 271 58 113 215 b 465 761 113 603 271 761 b 713 659 558 761 646 724 l 764 710 b 465 833 684 789 578 833 b 41 409 231 833 41 643 b 462 -16 41 170 245 -16 b 767 113 583 -16 690 32 z m 642 876 l 495 1021 l 432 1021 l 286 876 l 380 876 l 464 944 l 547 876 z "},"Ģ":{"ha":928,"x_min":0,"x_max":0,"o":"m 394 -258 l 454 -258 l 500 -60 l 418 -60 z m 767 113 b 887 408 843 189 887 292 l 455 407 l 455 332 l 806 332 b 465 58 763 170 625 58 b 113 409 271 58 113 215 b 465 761 113 603 271 761 b 713 659 558 761 646 724 l 764 710 b 465 833 684 789 578 833 b 41 409 231 833 41 643 b 462 -16 41 170 245 -16 b 767 113 583 -16 690 32 z "},"Ġ":{"ha":928,"x_min":0,"x_max":0,"o":"m 767 113 b 887 408 843 189 887 292 l 455 407 l 455 332 l 806 332 b 465 58 763 170 625 58 b 113 409 271 58 113 215 b 465 761 113 603 271 761 b 713 659 558 761 646 724 l 764 710 b 465 833 684 789 578 833 b 41 409 231 833 41 643 b 462 -16 41 170 245 -16 b 767 113 583 -16 690 32 z m 516 928 b 463 981 516 957 492 981 b 411 928 435 981 411 957 b 463 876 411 899 435 876 b 516 928 492 876 516 899 z "},"Ĥ":{"ha":775,"x_min":0,"x_max":0,"o":"m 640 808 l 640 450 l 136 450 l 136 808 l 61 808 l 61 7 l 136 7 l 136 375 l 640 375 l 640 7 l 714 7 l 714 808 l 640 808 z m 566 876 l 419 1021 l 356 1021 l 210 876 l 304 876 l 388 944 l 471 876 z "},"Ħ":{"ha":775,"x_min":0,"x_max":0,"o":"m 640 808 l 640 450 l 136 450 l 136 808 l 61 808 l 61 7 l 136 7 l 136 375 l 640 375 l 640 7 l 714 7 l 714 808 l 640 808 z m 501 631 l 273 631 l 273 704 l 501 704 z "},"Ĭ":{"ha":275,"x_min":0,"x_max":0,"o":"m 174 810 l 174 8 l 100 8 l 100 810 l 174 810 z m 220 1021 l 138 952 l 54 1021 l -41 1021 l 106 876 l 109 876 l 165 876 l 169 876 l 315 1021 l 220 1021 z "},"İ":{"ha":254,"x_min":0,"x_max":0,"o":"m 164 810 l 164 8 l 90 8 l 90 810 l 164 810 z m 180 928 b 127 981 180 957 156 981 b 75 928 98 981 75 957 b 127 876 75 899 98 876 b 180 928 156 876 180 899 z "},"Ī":{"ha":255,"x_min":0,"x_max":0,"o":"m 165 810 l 90 810 l 90 8 l 165 8 z m 241 998 l 14 998 l 14 924 l 241 924 z "},"Į":{"ha":239,"x_min":0,"x_max":0,"o":"m 269 -96 b 159 -121 243 -129 191 -145 b 163 8 117 -89 163 7 l 163 810 l 89 810 l 89 8 b 129 -182 56 -37 35 -153 b 307 -106 242 -217 307 -106 b 269 -96 307 -106 270 -97 z "},"Ĩ":{"ha":231,"x_min":0,"x_max":0,"o":"m 153 810 l 78 810 l 78 8 l 153 8 z m 176 899 b 245 915 197 899 220 903 l 215 981 b 127 983 180 966 158 973 b -14 981 91 994 47 1008 l 16 915 b 104 913 51 931 73 924 b 176 899 125 907 149 899 z "},"Í":{"ha":241,"x_min":0,"x_max":0,"o":"m 156 810 l 156 8 l 81 8 l 81 810 l 156 810 z m 84 876 l 144 876 l 255 1021 l 149 1021 l 84 876 z "},"Ĵ":{"ha":604,"x_min":0,"x_max":0,"o":"m 90 810 l 90 736 l 469 736 l 469 346 b 79 68 469 317 466 68 l 61 -5 b 543 345 444 -5 543 205 l 543 810 l 90 810 z m 480 876 l 334 1021 l 271 1021 l 124 876 l 219 876 l 302 944 l 385 876 z "},"Ķ":{"ha":655,"x_min":0,"x_max":0,"o":"m 614 4 l 614 5 l 203 407 l 614 809 l 613 810 l 512 810 l 136 443 l 136 810 l 61 810 l 61 8 l 136 8 l 136 371 l 511 4 l 614 4 z m 216 -280 l 276 -280 l 323 -82 l 240 -82 l 216 -280 z "},"Ĺ":{"ha":578,"x_min":0,"x_max":0,"o":"m 136 80 l 136 810 l 61 810 l 61 5 l 538 5 l 538 80 l 136 80 z m 214 876 l 273 876 l 385 1021 l 278 1021 l 214 876 z "},"Ľ":{"ha":578,"x_min":0,"x_max":0,"o":"m 136 80 l 136 810 l 61 810 l 61 5 l 538 5 l 538 80 l 136 80 z m 246 724 l 306 724 l 353 922 l 270 922 z "},"Ļ":{"ha":578,"x_min":0,"x_max":0,"o":"m 136 80 l 136 810 l 61 810 l 61 5 l 538 5 l 538 80 l 136 80 z m 216 -277 l 276 -277 l 323 -79 l 240 -79 l 216 -277 z "},"Ŀ":{"ha":578,"x_min":0,"x_max":0,"o":"m 136 80 l 136 810 l 61 810 l 61 5 l 538 5 l 538 80 l 136 80 z m 367 441 b 319 393 367 414 345 393 b 270 441 292 393 270 414 b 319 490 270 468 292 490 b 367 441 345 490 367 468 z "},"Ń":{"ha":844,"x_min":0,"x_max":0,"o":"m 783 810 l 708 810 l 708 101 l 157 810 l 61 810 l 61 7 l 136 7 l 136 714 l 687 5 l 783 5 l 781 7 l 783 7 l 783 810 z m 336 876 l 396 876 l 507 1021 l 401 1021 l 336 876 z "},"L":{"ha":578,"x_min":0,"x_max":0,"o":"m 136 80 l 136 810 l 61 810 l 61 5 l 538 5 l 538 80 l 136 80 z "},"Ň":{"ha":844,"x_min":0,"x_max":0,"o":"m 783 810 l 708 810 l 708 101 l 157 810 l 61 810 l 61 7 l 136 7 l 136 714 l 687 5 l 783 5 l 781 7 l 783 7 l 783 810 z m 505 1021 l 422 952 l 338 1021 l 243 1021 l 390 876 l 393 876 l 450 876 l 453 876 l 600 1021 l 505 1021 z "},"Ņ":{"ha":844,"x_min":0,"x_max":0,"o":"m 783 810 l 708 810 l 708 101 l 157 810 l 61 810 l 61 7 l 136 7 l 136 714 l 687 5 l 783 5 l 781 7 l 783 7 l 783 810 z m 343 -273 l 403 -273 l 450 -75 l 367 -75 l 343 -273 z "},"Ŏ":{"ha":931,"x_min":0,"x_max":0,"o":"m 465 761 b 817 409 660 761 817 603 b 465 57 817 215 660 57 b 113 409 271 57 113 215 b 465 761 113 603 271 761 z m 465 833 b 41 409 226 833 41 644 b 465 -16 41 174 231 -16 b 890 409 700 -16 890 174 b 465 833 890 644 697 833 z m 549 1021 l 466 952 l 382 1021 l 288 1021 l 434 876 l 437 876 l 494 876 l 497 876 l 644 1021 l 549 1021 z "},"Ő":{"ha":931,"x_min":0,"x_max":0,"o":"m 465 761 b 817 409 660 761 817 603 b 465 57 817 215 660 57 b 113 409 271 57 113 215 b 465 761 113 603 271 761 z m 465 833 b 41 409 226 833 41 644 b 465 -16 41 174 231 -16 b 890 409 700 -16 890 174 b 465 833 890 644 697 833 z m 341 876 l 401 876 l 512 1021 l 406 1021 l 341 876 z m 519 876 l 578 876 l 690 1021 l 583 1021 l 519 876 z "},"Ō":{"ha":931,"x_min":0,"x_max":0,"o":"m 465 761 b 817 409 660 761 817 603 b 465 57 817 215 660 57 b 113 409 271 57 113 215 b 465 761 113 603 271 761 z m 465 833 b 41 409 226 833 41 644 b 465 -16 41 174 231 -16 b 890 409 700 -16 890 174 b 465 833 890 644 697 833 z m 579 998 l 351 998 l 351 924 l 579 924 z "},"Ŕ":{"ha":654,"x_min":0,"x_max":0,"o":"m 613 5 l 468 388 b 602 590 557 431 594 500 b 383 809 602 711 500 807 l 61 808 l 61 7 l 137 7 l 137 371 b 395 371 387 371 391 371 l 534 5 l 613 5 z m 137 447 l 137 732 l 378 732 b 525 590 456 732 525 668 b 380 446 525 511 458 446 l 137 447 z m 252 876 l 311 876 l 422 1021 l 316 1021 l 252 876 z "},"Ř":{"ha":654,"x_min":0,"x_max":0,"o":"m 613 5 l 468 388 b 602 590 557 431 594 500 b 383 809 602 711 500 807 l 61 808 l 61 7 l 137 7 l 137 371 b 395 371 387 371 391 371 l 534 5 l 613 5 z m 137 447 l 137 732 l 378 732 b 525 590 456 732 525 668 b 380 446 525 511 458 446 l 137 447 z m 375 1021 l 292 952 l 209 1021 l 114 1021 l 260 876 l 264 876 l 320 876 l 323 876 l 470 1021 l 375 1021 z "},"Ŗ":{"ha":654,"x_min":0,"x_max":0,"o":"m 613 5 l 468 388 b 602 590 557 431 594 500 b 383 809 602 711 500 807 l 61 808 l 61 7 l 137 7 l 137 371 b 395 371 387 371 391 371 l 534 5 l 613 5 z m 137 447 l 137 732 l 378 732 b 525 590 456 732 525 668 b 380 446 525 511 458 446 l 137 447 z m 252 -271 l 312 -271 l 359 -73 l 276 -73 l 252 -271 z "},"Ś":{"ha":695,"x_min":0,"x_max":0,"o":"m 448 429 l 267 489 b 153 616 196 514 151 546 b 361 762 161 732 267 766 b 524 691 423 758 486 736 l 526 690 l 610 716 b 364 833 552 794 456 828 b 71 619 220 842 81 771 b 243 412 66 510 142 441 l 409 358 b 564 206 484 334 570 293 b 345 57 559 96 432 54 b 132 144 268 61 177 79 l 131 145 l 47 119 b 361 -14 128 15 247 -14 b 647 203 501 -14 635 50 b 448 429 654 332 550 397 z m 310 876 l 370 876 l 481 1021 l 374 1021 l 310 876 z "},"Ş":{"ha":695,"x_min":0,"x_max":0,"o":"m 448 429 l 267 489 b 153 616 196 514 151 546 b 361 762 161 732 267 766 b 524 691 423 758 486 736 l 526 690 l 610 716 b 364 833 552 794 456 828 b 71 619 220 842 81 771 b 243 412 66 510 142 441 l 409 358 b 564 206 484 334 570 293 b 345 57 559 96 432 54 b 132 144 268 61 177 79 l 131 145 l 47 119 b 361 -14 128 15 247 -14 b 647 203 501 -14 635 50 b 448 429 654 332 550 397 z m 290 1 b 290 -77 290 1 290 -77 b 346 -107 290 -77 346 -107 b 416 -111 356 -96 401 -83 b 344 -161 431 -141 410 -184 b 327 -204 343 -161 327 -204 b 442 -201 355 -219 395 -234 b 344 -50 519 -147 471 -5 b 365 1 344 -51 365 1 b 290 1 365 1 290 1 z "},"Ŝ":{"ha":695,"x_min":0,"x_max":0,"o":"m 448 429 l 267 489 b 153 616 196 514 151 546 b 361 762 161 732 267 766 b 524 691 423 758 486 736 l 526 690 l 610 716 b 364 833 552 794 456 828 b 71 619 220 842 81 771 b 243 412 66 510 142 441 l 409 358 b 564 206 484 334 570 293 b 345 57 559 96 432 54 b 132 144 268 61 177 79 l 131 145 l 47 119 b 361 -14 128 15 247 -14 b 647 203 501 -14 635 50 b 448 429 654 332 550 397 z m 526 876 l 379 1021 l 316 1021 l 170 876 l 264 876 l 348 944 l 431 876 z "},"Ș":{"ha":695,"x_min":0,"x_max":0,"o":"m 448 429 l 267 489 b 153 616 196 514 151 546 b 361 762 161 732 267 766 b 524 691 423 758 486 736 l 526 690 l 610 716 b 364 833 552 794 456 828 b 71 619 220 842 81 771 b 243 412 66 510 142 441 l 409 358 b 564 206 484 334 570 293 b 345 57 559 96 432 54 b 132 144 268 61 177 79 l 131 145 l 47 119 b 361 -14 128 15 247 -14 b 647 203 501 -14 635 50 b 448 429 654 332 550 397 z m 295 -290 l 355 -290 l 401 -92 l 319 -92 l 295 -290 z "},"Ŧ":{"ha":708,"x_min":0,"x_max":0,"o":"m 681 735 l 681 810 l 27 810 l 27 735 l 317 735 l 317 565 l 240 565 l 240 492 l 317 492 l 317 5 l 391 5 l 391 492 l 468 492 l 468 565 l 391 565 l 391 735 l 681 735 z "},"Ť":{"ha":708,"x_min":0,"x_max":0,"o":"m 681 810 l 27 810 l 27 735 l 317 735 l 317 5 l 391 5 l 391 735 l 681 735 l 681 810 z m 437 1021 l 354 952 l 271 1021 l 176 1021 l 322 876 l 326 876 l 382 876 l 385 876 l 532 1021 l 437 1021 z "},"Ţ":{"ha":708,"x_min":0,"x_max":0,"o":"m 681 810 l 27 810 l 27 735 l 317 735 l 317 5 l 391 5 l 391 735 l 681 735 l 681 810 z m 289 -285 l 349 -285 l 395 -87 l 313 -87 l 289 -285 z "},"Ŭ":{"ha":897,"x_min":0,"x_max":0,"o":"m 836 810 l 763 810 l 764 371 b 448 56 764 197 622 56 b 133 371 275 56 133 197 l 133 810 l 61 810 l 61 371 b 448 -16 61 158 235 -16 b 836 371 662 -16 836 158 l 836 810 z m 531 1021 l 448 952 l 365 1021 l 270 1021 l 416 876 l 420 876 l 476 876 l 479 876 l 626 1021 l 531 1021 z "},"Ű":{"ha":897,"x_min":0,"x_max":0,"o":"m 836 810 l 763 810 l 764 371 b 448 56 764 197 622 56 b 133 371 275 56 133 197 l 133 810 l 61 810 l 61 371 b 448 -16 61 158 235 -16 b 836 371 662 -16 836 158 l 836 810 z m 331 876 l 391 876 l 502 1021 l 395 1021 l 331 876 z m 509 876 l 568 876 l 680 1021 l 573 1021 l 509 876 z "},"Ū":{"ha":897,"x_min":0,"x_max":0,"o":"m 836 810 l 763 810 l 764 371 b 448 56 764 197 622 56 b 133 371 275 56 133 197 l 133 810 l 61 810 l 61 371 b 448 -16 61 158 235 -16 b 836 371 662 -16 836 158 l 836 810 z m 562 998 l 334 998 l 334 924 l 562 924 z "},"Ų":{"ha":897,"x_min":0,"x_max":0,"o":"m 836 371 l 836 810 l 763 810 l 764 371 b 448 56 764 197 622 56 b 133 371 275 56 133 197 l 133 810 l 61 810 l 61 371 b 430 -16 61 164 225 -6 b 479 -191 404 -67 393 -165 b 657 -115 592 -226 657 -115 b 620 -105 657 -115 621 -106 b 509 -130 593 -138 541 -155 b 528 -7 473 -103 514 -31 b 836 371 703 29 836 185 z "},"Ů":{"ha":897,"x_min":0,"x_max":0,"o":"m 836 810 l 763 810 l 764 371 b 448 56 764 197 622 56 b 133 371 275 56 133 197 l 133 810 l 61 810 l 61 371 b 448 -16 61 158 235 -16 b 836 371 662 -16 836 158 l 836 810 z m 448 810 b 565 927 513 810 565 863 b 448 1044 565 992 513 1044 b 331 927 383 1044 331 992 b 448 810 331 863 383 810 z m 448 998 b 518 927 487 998 518 966 b 448 857 518 889 487 857 b 378 927 410 857 378 889 b 448 998 378 966 410 998 z "},"Ũ":{"ha":897,"x_min":0,"x_max":0,"o":"m 836 810 l 763 810 l 764 371 b 448 56 764 197 622 56 b 133 371 275 56 133 197 l 133 810 l 61 810 l 61 371 b 448 -16 61 158 235 -16 b 836 371 662 -16 836 158 l 836 810 z m 509 899 b 577 915 529 899 552 903 l 547 981 b 459 983 513 966 490 973 b 319 981 423 994 379 1008 l 349 915 b 437 913 383 931 406 924 b 509 899 458 907 481 899 z "},"Ẃ":{"ha":1078,"x_min":0,"x_max":0,"o":"m 961 810 l 641 92 l 578 233 l 835 810 l 758 810 l 539 320 l 321 810 l 244 810 l 501 233 l 437 92 l 118 810 l 41 810 l 399 5 l 399 5 l 476 5 l 477 5 l 539 146 l 602 5 l 603 5 l 679 5 l 680 5 l 1038 810 l 961 810 z m 541 876 l 600 876 l 711 1021 l 605 1021 l 541 876 z "},"Ŵ":{"ha":1078,"x_min":0,"x_max":0,"o":"m 961 810 l 641 92 l 578 233 l 835 810 l 758 810 l 539 320 l 321 810 l 244 810 l 501 233 l 437 92 l 118 810 l 41 810 l 399 5 l 399 5 l 476 5 l 477 5 l 539 146 l 602 5 l 603 5 l 679 5 l 680 5 l 1038 810 l 961 810 z m 717 876 l 570 1021 l 507 1021 l 361 876 l 456 876 l 539 944 l 622 876 z "},"Ẅ":{"ha":1078,"x_min":0,"x_max":0,"o":"m 961 810 l 641 92 l 578 233 l 835 810 l 758 810 l 539 320 l 321 810 l 244 810 l 501 233 l 437 92 l 118 810 l 41 810 l 399 5 l 399 5 l 476 5 l 477 5 l 539 146 l 602 5 l 603 5 l 679 5 l 680 5 l 1038 810 l 961 810 z m 489 927 b 436 980 489 956 465 980 b 384 927 408 980 384 956 b 436 875 384 899 408 875 b 489 927 465 875 489 899 z m 694 927 b 642 980 694 956 671 980 b 589 927 612 980 589 956 b 642 875 589 899 612 875 b 694 927 671 875 694 899 z "},"Ẁ":{"ha":1078,"x_min":0,"x_max":0,"o":"m 961 810 l 641 92 l 578 233 l 835 810 l 758 810 l 539 320 l 321 810 l 244 810 l 501 233 l 437 92 l 118 810 l 41 810 l 399 5 l 399 5 l 476 5 l 477 5 l 539 146 l 602 5 l 603 5 l 679 5 l 680 5 l 1038 810 l 961 810 z m 503 1021 l 397 1021 l 508 876 l 568 876 z "},"Ŷ":{"ha":647,"x_min":0,"x_max":0,"o":"m 633 810 l 541 811 l 322 446 l 106 811 l 14 810 l 281 385 l 281 5 l 365 5 l 365 389 l 633 810 z m 501 876 l 355 1021 l 292 1021 l 145 876 l 240 876 l 323 944 l 406 876 z "},"Ỳ":{"ha":647,"x_min":0,"x_max":0,"o":"m 633 810 l 541 811 l 322 446 l 106 811 l 14 810 l 281 385 l 281 5 l 365 5 l 365 389 l 633 810 z m 282 1021 l 176 1021 l 287 876 l 347 876 z "},"Ź":{"ha":803,"x_min":0,"x_max":0,"o":"m 762 809 l 87 810 l 87 735 l 608 735 l 41 5 l 715 5 l 715 79 l 195 79 l 762 809 z m 372 876 l 432 876 l 543 1021 l 437 1021 l 372 876 z "},"Ž":{"ha":803,"x_min":0,"x_max":0,"o":"m 762 809 l 87 810 l 87 735 l 608 735 l 41 5 l 715 5 l 715 79 l 195 79 l 762 809 z m 484 1021 l 401 952 l 318 1021 l 223 1021 l 370 876 l 373 876 l 429 876 l 433 876 l 579 1021 l 484 1021 z "},"Ż":{"ha":803,"x_min":0,"x_max":0,"o":"m 762 809 l 87 810 l 87 735 l 608 735 l 41 5 l 715 5 l 715 79 l 195 79 l 762 809 z m 454 928 b 401 981 454 957 430 981 b 349 928 372 981 349 957 b 401 876 349 899 372 876 b 454 928 430 876 454 899 z "},"ć":{"ha":771,"x_min":0,"x_max":0,"o":"m 561 -17 b 136 409 326 -17 136 174 b 561 834 136 644 326 834 l 561 762 b 208 409 367 762 208 603 b 561 56 208 214 367 56 l 561 -17 z m 498 876 l 558 876 l 669 1021 l 563 1021 l 498 876 z "},"č":{"ha":762,"x_min":0,"x_max":0,"o":"m 561 -17 b 136 409 326 -17 136 174 b 561 834 136 644 326 834 l 561 762 b 208 409 367 762 208 603 b 561 56 208 214 367 56 l 561 -17 z m 612 1021 l 530 952 l 446 1021 l 351 1021 l 498 876 l 501 876 l 557 876 l 561 876 l 707 1021 l 612 1021 z "},"ĉ":{"ha":766,"x_min":0,"x_max":0,"o":"m 561 -17 b 136 409 326 -17 136 174 b 561 834 136 644 326 834 l 561 762 b 208 409 367 762 208 603 b 561 56 208 214 367 56 l 561 -17 z m 739 876 l 592 1021 l 529 1021 l 382 876 l 477 876 l 561 944 l 644 876 z "},"ċ":{"ha":766,"x_min":0,"x_max":0,"o":"m 561 -17 b 136 409 326 -17 136 174 b 561 834 136 644 326 834 l 561 762 b 208 409 367 762 208 603 b 561 56 208 214 367 56 l 561 -17 z m 603 928 b 550 981 603 957 579 981 b 498 928 522 981 498 957 b 550 876 498 899 522 876 b 603 928 579 876 603 899 z "},"ď":{"ha":888,"x_min":0,"x_max":0,"o":"m 136 810 l 136 738 l 378 738 b 707 409 559 738 707 590 b 378 80 707 227 557 80 l 136 80 l 136 7 l 378 7 b 779 409 600 7 779 187 b 378 810 779 630 600 810 z m 492 1021 l 409 952 l 326 1021 l 231 1021 l 377 876 l 380 876 l 437 876 l 440 876 l 587 1021 l 492 1021 z "},"ĕ":{"ha":924,"x_min":0,"x_max":0,"o":"m 136 811 l 136 736 l 788 736 l 788 811 l 136 811 z m 136 7 l 788 7 l 788 81 l 136 81 l 136 7 z m 481 446 l 136 446 l 136 371 l 481 371 l 481 446 z m 560 1021 l 477 952 l 394 1021 l 299 1021 l 446 876 l 449 876 l 505 876 l 509 876 l 655 1021 l 560 1021 z "},"ě":{"ha":924,"x_min":0,"x_max":0,"o":"m 136 811 l 136 736 l 788 736 l 788 811 l 136 811 z m 136 7 l 788 7 l 788 81 l 136 81 l 136 7 z m 481 446 l 136 446 l 136 371 l 481 371 l 481 446 z m 557 1021 l 475 952 l 391 1021 l 296 1021 l 443 876 l 446 876 l 503 876 l 506 876 l 652 1021 l 557 1021 z "},"ė":{"ha":924,"x_min":0,"x_max":0,"o":"m 136 811 l 136 736 l 788 736 l 788 811 l 136 811 z m 136 7 l 788 7 l 788 81 l 136 81 l 136 7 z m 481 446 l 136 446 l 136 371 l 481 371 l 481 446 z m 524 928 b 471 981 524 957 500 981 b 418 928 442 981 418 957 b 471 876 418 899 442 876 b 524 928 500 876 524 899 z "},"ē":{"ha":924,"x_min":0,"x_max":0,"o":"m 136 811 l 136 736 l 788 736 l 788 811 l 136 811 z m 136 7 l 788 7 l 788 81 l 136 81 l 136 7 z m 481 446 l 136 446 l 136 371 l 481 371 l 481 446 z m 586 998 l 358 998 l 358 924 l 586 924 z "},"ę":{"ha":926,"x_min":0,"x_max":0,"o":"m 788 811 l 136 811 l 136 736 l 788 736 l 788 811 z m 481 446 l 136 446 l 136 371 l 481 371 l 481 446 z m 874 -98 b 764 -123 848 -131 795 -147 b 787 7 722 -92 785 3 l 788 7 l 788 81 l 136 81 l 136 7 l 694 7 b 734 -184 661 -39 640 -155 b 912 -109 847 -219 912 -109 b 874 -98 912 -109 875 -99 z "},"ğ":{"ha":953,"x_min":0,"x_max":0,"o":"m 554 408 l 554 334 l 817 334 l 817 408 l 554 408 z m 208 409 b 561 762 208 603 367 762 l 561 834 b 136 409 326 834 136 644 b 561 -17 136 174 326 -17 l 561 56 b 208 409 367 56 208 214 z m 619 1021 l 536 952 l 453 1021 l 358 1021 l 505 876 l 508 876 l 564 876 l 568 876 l 714 1021 l 619 1021 z "},"ĝ":{"ha":953,"x_min":0,"x_max":0,"o":"m 554 408 l 554 334 l 817 334 l 817 408 l 554 408 z m 208 409 b 561 762 208 603 367 762 l 561 834 b 136 409 326 834 136 644 b 561 -17 136 174 326 -17 l 561 56 b 208 409 367 56 208 214 z m 732 876 l 586 1021 l 523 1021 l 376 876 l 471 876 l 555 944 l 637 876 z "},"":{"ha":229,"x_min":0,"x_max":0,"o":"m 61 -271 l 121 -271 l 168 -73 l 85 -73 l 61 -271 z "},"ģ":{"ha":953,"x_min":0,"x_max":0,"o":"m 554 408 l 554 334 l 817 334 l 817 408 l 554 408 z m 208 409 b 561 762 208 603 367 762 l 561 834 b 136 409 326 834 136 644 b 561 -17 136 174 326 -17 l 561 56 b 208 409 367 56 208 214 z m 450 -249 l 510 -249 l 557 -51 l 474 -51 z "},"ġ":{"ha":953,"x_min":0,"x_max":0,"o":"m 554 408 l 554 334 l 817 334 l 817 408 l 554 408 z m 208 409 b 561 762 208 603 367 762 l 561 834 b 136 409 326 834 136 644 b 561 -17 136 174 326 -17 l 561 56 b 208 409 367 56 208 214 z m 591 928 b 538 981 591 957 568 981 b 486 928 510 981 486 957 b 538 876 486 899 510 876 b 591 928 568 876 591 899 z "},"ĥ":{"ha":924,"x_min":0,"x_max":0,"o":"m 714 593 l 714 450 l 210 450 l 210 593 l 136 593 l 136 224 l 210 224 l 210 376 l 714 376 l 714 224 l 789 224 l 789 593 l 714 593 z m 646 876 l 499 1021 l 436 1021 l 290 876 l 385 876 l 468 944 l 551 876 z "},"ħ":{"ha":924,"x_min":0,"x_max":0,"o":"m 714 593 l 714 450 l 210 450 l 210 593 l 136 593 l 136 224 l 210 224 l 210 376 l 714 376 l 714 224 l 789 224 l 789 593 l 714 593 z m 579 998 l 351 998 l 351 924 l 579 924 z "},"ĭ":{"ha":383,"x_min":0,"x_max":0,"o":"m 151 8 l 226 8 l 226 416 l 151 416 l 151 8 z m 151 811 l 151 703 l 226 703 l 226 811 l 151 811 z m 275 1021 l 192 952 l 109 1021 l 14 1021 l 160 876 l 163 876 l 220 876 l 223 876 l 370 1021 l 275 1021 z "},"ī":{"ha":391,"x_min":0,"x_max":0,"o":"m 157 8 l 232 8 l 232 416 l 157 416 l 157 8 z m 157 811 l 157 703 l 232 703 l 232 811 l 157 811 z m 309 998 l 81 998 l 81 924 l 309 924 z "},"į":{"ha":383,"x_min":0,"x_max":0,"o":"m 157 811 l 157 703 l 232 703 l 232 811 l 157 811 z m 338 -97 b 227 -121 313 -129 260 -145 b 232 8 186 -90 231 7 l 232 416 l 157 416 l 157 8 b 198 -183 124 -37 103 -154 b 376 -106 311 -218 376 -106 b 338 -97 376 -106 338 -97 z "},"ĩ":{"ha":394,"x_min":0,"x_max":0,"o":"m 161 8 l 236 8 l 236 416 l 161 416 l 161 8 z m 161 811 l 161 703 l 236 703 l 236 811 l 161 811 z m 258 899 b 326 915 278 899 301 903 l 296 981 b 208 983 262 966 239 973 b 68 981 172 994 128 1008 l 98 915 b 186 913 132 931 155 924 b 258 899 207 907 230 899 z "},"ĵ":{"ha":753,"x_min":0,"x_max":0,"o":"m 165 811 l 165 736 l 618 736 l 618 811 l 165 811 z m 154 68 l 136 -4 b 618 345 518 -4 618 206 l 543 345 b 154 68 543 317 541 68 z m 578 876 l 431 1021 l 368 1021 l 222 876 l 317 876 l 400 944 l 483 876 z "},"ķ":{"ha":706,"x_min":0,"x_max":0,"o":"m 618 7 l 618 7 l 206 410 l 618 811 l 616 813 l 515 813 l 136 442 l 136 376 l 515 7 l 618 7 z m 328 -292 l 387 -292 l 434 -94 l 351 -94 l 328 -292 z "},"ĺ":{"ha":701,"x_min":0,"x_max":0,"o":"m 210 81 l 210 408 l 136 408 l 136 8 l 136 7 l 612 7 l 612 81 l 210 81 z m 295 876 l 355 876 l 466 1021 l 359 1021 l 295 876 z "},"ľ":{"ha":701,"x_min":0,"x_max":0,"o":"m 210 81 l 210 408 l 136 408 l 136 8 l 136 7 l 612 7 l 612 81 l 210 81 z m 283 724 l 342 724 l 389 922 l 307 922 z "},"ļ":{"ha":701,"x_min":0,"x_max":0,"o":"m 210 81 l 210 408 l 136 408 l 136 8 l 136 7 l 612 7 l 612 81 l 210 81 z m 330 -282 l 390 -282 l 437 -84 l 354 -84 l 330 -282 z "},"ŀ":{"ha":701,"x_min":0,"x_max":0,"o":"m 210 81 l 210 408 l 136 408 l 136 8 l 136 7 l 612 7 l 612 81 l 210 81 z m 451 441 b 403 490 451 468 429 490 b 354 441 376 490 354 468 b 403 393 354 414 376 393 b 451 441 429 393 451 414 z "},"ń":{"ha":993,"x_min":0,"x_max":0,"o":"m 147 6 l 231 6 l 231 81 l 147 81 l 147 6 z m 846 811 l 762 811 l 762 736 l 846 736 l 846 811 z m 232 811 l 136 811 l 762 6 l 857 6 l 232 811 z m 465 876 l 524 876 l 635 1021 l 529 1021 l 465 876 z "},"ň":{"ha":993,"x_min":0,"x_max":0,"o":"m 147 6 l 231 6 l 231 81 l 147 81 l 147 6 z m 846 811 l 762 811 l 762 736 l 846 736 l 846 811 z m 232 811 l 136 811 l 762 6 l 857 6 l 232 811 z m 578 1021 l 495 952 l 412 1021 l 317 1021 l 463 876 l 467 876 l 523 876 l 526 876 l 673 1021 l 578 1021 z "},"ņ":{"ha":993,"x_min":0,"x_max":0,"o":"m 147 6 l 231 6 l 231 81 l 147 81 l 147 6 z m 846 811 l 762 811 l 762 736 l 846 736 l 846 811 z m 232 811 l 136 811 l 762 6 l 857 6 l 232 811 z m 433 -280 l 492 -280 l 539 -82 l 456 -82 l 433 -280 z "},"ŏ":{"ha":546,"x_min":0,"x_max":0,"o":"m 407 409 b 272 274 407 334 347 274 b 138 409 198 274 138 334 b 272 543 138 483 198 543 b 407 409 347 543 407 483 z m 356 1021 l 273 952 l 190 1021 l 95 1021 l 241 876 l 245 876 l 301 876 l 304 876 l 451 1021 l 356 1021 z "},"ő":{"ha":538,"x_min":0,"x_max":0,"o":"m 405 409 b 270 274 405 334 345 274 b 136 409 196 274 136 334 b 270 543 136 483 196 543 b 405 409 345 543 405 483 z m 190 876 l 250 876 l 361 1021 l 254 1021 l 190 876 z m 368 876 l 427 876 l 538 1021 l 432 1021 l 368 876 z "},"ō":{"ha":541,"x_min":0,"x_max":0,"o":"m 405 409 b 270 543 405 483 345 543 b 136 409 196 543 136 483 b 270 274 136 334 196 274 b 405 409 345 274 405 334 z m 391 998 l 163 998 l 163 924 l 391 924 z "},"ŕ":{"ha":440,"x_min":0,"x_max":0,"o":"m 168 485 b 294 612 238 485 294 542 b 168 739 294 682 237 739 l 136 739 l 136 485 z m 233 408 l 154 408 l 307 6 l 386 6 l 233 408 z m 193 876 l 253 876 l 364 1021 l 258 1021 l 193 876 z "},"ř":{"ha":440,"x_min":0,"x_max":0,"o":"m 168 485 b 294 612 238 485 294 542 b 168 739 294 682 237 739 l 136 739 l 136 485 z m 233 408 l 154 408 l 307 6 l 386 6 l 233 408 z m 288 1021 l 205 952 l 122 1021 l 27 1021 l 174 876 l 177 876 l 233 876 l 237 876 l 383 1021 l 288 1021 z "},"ŗ":{"ha":440,"x_min":0,"x_max":0,"o":"m 168 485 b 294 612 238 485 294 542 b 168 739 294 682 237 739 l 136 739 l 136 485 z m 233 408 l 154 408 l 307 6 l 386 6 l 233 408 z m 168 -279 l 227 -279 l 274 -81 l 191 -81 l 168 -279 z "},"ś":{"ha":851,"x_min":0,"x_max":0,"o":"m 311 408 l 483 366 b 627 282 537 351 597 332 b 640 200 644 256 644 227 l 714 200 b 700 308 717 237 716 275 b 515 431 667 380 586 413 l 327 477 b 219 548 283 488 237 507 b 214 633 207 574 209 606 l 141 633 b 151 517 132 595 134 551 b 311 408 182 451 248 425 z m 414 876 l 473 876 l 585 1021 l 478 1021 l 414 876 z "},"ş":{"ha":851,"x_min":0,"x_max":0,"o":"m 311 408 l 483 366 b 627 282 537 351 597 332 b 640 200 644 256 644 227 l 714 200 b 700 308 717 237 716 275 b 515 431 667 380 586 413 l 327 477 b 219 548 283 488 237 507 b 214 633 207 574 209 606 l 141 633 b 151 517 132 595 134 551 b 311 408 182 451 248 425 z m 384 1 b 384 -77 384 1 384 -77 b 440 -107 384 -77 440 -107 b 511 -111 450 -96 496 -83 b 438 -161 526 -141 504 -184 b 421 -204 437 -161 421 -204 b 536 -201 449 -219 489 -234 b 438 -50 613 -147 565 -5 b 459 1 438 -51 459 1 b 384 1 459 1 384 1 z "},"ŝ":{"ha":851,"x_min":0,"x_max":0,"o":"m 311 408 l 483 366 b 627 282 537 351 597 332 b 640 200 644 256 644 227 l 714 200 b 700 308 717 237 716 275 b 515 431 667 380 586 413 l 327 477 b 219 548 283 488 237 507 b 214 633 207 574 209 606 l 141 633 b 151 517 132 595 134 551 b 311 408 182 451 248 425 z m 637 876 l 491 1021 l 428 1021 l 281 876 l 376 876 l 460 944 l 543 876 z "},"ș":{"ha":851,"x_min":0,"x_max":0,"o":"m 311 408 l 483 366 b 627 282 537 351 597 332 b 640 200 644 256 644 227 l 714 200 b 700 308 717 237 716 275 b 515 431 667 380 586 413 l 327 477 b 219 548 283 488 237 507 b 214 633 207 574 209 606 l 141 633 b 151 517 132 595 134 551 b 311 408 182 451 248 425 z m 374 -272 l 434 -272 l 481 -74 l 398 -74 l 374 -272 z "},"ŧ":{"ha":898,"x_min":0,"x_max":0,"o":"m 776 735 l 776 810 l 122 810 l 122 735 l 412 735 l 412 565 l 335 565 l 335 492 l 412 492 l 412 411 l 486 411 l 486 492 l 563 492 l 563 565 l 486 565 l 486 735 z "},"ť":{"ha":911,"x_min":0,"x_max":0,"o":"m 776 811 l 122 811 l 122 736 l 412 736 l 412 410 l 486 410 l 486 736 l 776 736 l 776 811 z m 805 724 l 865 724 l 911 922 l 829 922 z "},"ţ":{"ha":898,"x_min":0,"x_max":0,"o":"m 776 811 l 122 811 l 122 736 l 412 736 l 412 410 l 486 410 l 486 736 l 776 736 l 776 811 z m 375 -260 l 429 -260 l 470 -84 l 396 -84 l 375 -260 z "},"ŭ":{"ha":1046,"x_min":0,"x_max":0,"o":"m 523 -16 b 136 372 309 -16 136 158 l 136 408 l 208 408 l 208 372 b 523 56 208 198 349 56 b 838 372 696 56 838 198 l 838 408 l 910 408 l 910 372 b 523 -16 910 158 736 -16 z m 606 1021 l 524 952 l 440 1021 l 345 1021 l 492 876 l 495 876 l 551 876 l 555 876 l 701 1021 l 606 1021 z "},"ű":{"ha":1046,"x_min":0,"x_max":0,"o":"m 523 -16 b 136 372 309 -16 136 158 l 136 408 l 208 408 l 208 372 b 523 56 208 198 349 56 b 838 372 696 56 838 198 l 838 408 l 910 408 l 910 372 b 523 -16 910 158 736 -16 z m 434 876 l 494 876 l 605 1021 l 498 1021 l 434 876 z m 612 876 l 671 876 l 783 1021 l 676 1021 l 612 876 z "},"ū":{"ha":1046,"x_min":0,"x_max":0,"o":"m 523 -16 b 910 372 736 -16 910 158 l 910 408 l 838 408 l 838 372 b 523 56 838 198 696 56 b 208 372 349 56 208 198 l 208 408 l 136 408 l 136 372 b 523 -16 136 158 309 -16 z m 639 998 l 411 998 l 411 924 l 639 924 z "},"ų":{"ha":1046,"x_min":0,"x_max":0,"o":"m 523 -16 b 910 372 736 -16 910 158 l 910 408 l 838 408 l 838 372 b 523 56 838 198 696 56 b 208 372 349 56 208 198 l 208 408 l 136 408 l 136 372 b 523 -16 136 158 309 -16 z m 599 1 b 505 1 599 1 505 1 b 545 -191 473 -44 450 -161 b 724 -115 659 -225 724 -115 b 686 -104 724 -115 686 -105 b 575 -129 660 -137 607 -153 b 599 1 533 -97 599 0 z "},"ů":{"ha":1046,"x_min":0,"x_max":0,"o":"m 523 -16 b 910 372 736 -16 910 158 l 910 408 l 838 408 l 838 372 b 523 56 838 198 696 56 b 208 372 349 56 208 198 l 208 408 l 136 408 l 136 372 b 523 -16 136 158 309 -16 z m 536 810 b 652 927 600 810 652 863 b 536 1044 652 992 600 1044 b 418 927 471 1044 418 992 b 536 810 418 863 471 810 z m 536 998 b 606 927 574 998 606 966 b 536 857 606 889 574 857 b 465 927 497 857 465 889 b 536 998 465 966 497 998 z "},"ũ":{"ha":1046,"x_min":0,"x_max":0,"o":"m 523 -16 b 910 372 736 -16 910 158 l 910 408 l 838 408 l 838 372 b 523 56 838 198 696 56 b 208 372 349 56 208 198 l 208 408 l 136 408 l 136 372 b 523 -16 136 158 309 -16 z m 582 899 b 650 915 602 899 625 903 l 621 981 b 532 983 586 966 564 973 b 392 981 496 994 452 1008 l 422 915 b 510 913 456 931 479 924 b 582 899 531 907 554 899 z "},"ẃ":{"ha":1268,"x_min":0,"x_max":0,"o":"m 818 736 l 895 736 l 928 811 l 851 811 l 818 736 z m 122 811 l 480 6 l 558 6 l 199 811 l 122 811 z m 1069 811 l 1036 736 l 1113 736 l 1146 811 l 1069 811 z m 340 811 l 699 6 l 776 6 l 417 811 l 340 811 z m 615 876 l 675 876 l 786 1021 l 680 1021 l 615 876 z "},"ŵ":{"ha":1268,"x_min":0,"x_max":0,"o":"m 818 736 l 895 736 l 928 811 l 851 811 l 818 736 z m 122 811 l 480 6 l 558 6 l 199 811 l 122 811 z m 1069 811 l 1036 736 l 1113 736 l 1146 811 l 1069 811 z m 340 811 l 699 6 l 776 6 l 417 811 l 340 811 z m 825 876 l 679 1021 l 616 1021 l 469 876 l 564 876 l 648 944 l 730 876 z "},"ẅ":{"ha":1268,"x_min":0,"x_max":0,"o":"m 818 736 l 895 736 l 928 811 l 851 811 l 818 736 z m 122 811 l 480 6 l 558 6 l 199 811 l 122 811 z m 1069 811 l 1036 736 l 1113 736 l 1146 811 l 1069 811 z m 340 811 l 699 6 l 776 6 l 417 811 l 340 811 z m 598 927 b 545 980 598 956 574 980 b 493 927 517 980 493 956 b 545 875 493 899 517 875 b 598 927 574 875 598 899 z m 803 927 b 751 980 803 956 780 980 b 698 927 722 980 698 956 b 751 875 698 899 722 875 b 803 927 780 875 803 899 z "},"ẁ":{"ha":1268,"x_min":0,"x_max":0,"o":"m 818 736 l 895 736 l 928 811 l 851 811 l 818 736 z m 122 811 l 480 6 l 558 6 l 199 811 l 122 811 z m 1069 811 l 1036 736 l 1113 736 l 1146 811 l 1069 811 z m 340 811 l 699 6 l 776 6 l 417 811 l 340 811 z m 571 1021 l 465 1021 l 576 876 l 635 876 z "},"ŷ":{"ha":891,"x_min":0,"x_max":0,"o":"m 755 810 l 663 811 l 444 470 l 228 811 l 136 810 l 444 345 l 755 810 z m 404 5 l 487 5 l 487 80 l 404 80 l 404 5 z m 625 876 l 478 1021 l 415 1021 l 269 876 l 363 876 l 447 944 l 530 876 z "},"ỳ":{"ha":891,"x_min":0,"x_max":0,"o":"m 755 810 l 663 811 l 444 470 l 228 811 l 136 810 l 444 345 l 755 810 z m 404 5 l 487 5 l 487 80 l 404 80 l 404 5 z m 410 1021 l 304 1021 l 415 876 l 475 876 z "},"ź":{"ha":925,"x_min":0,"x_max":0,"o":"m 701 6 l 777 6 l 777 81 l 701 81 l 701 6 z m 224 811 l 149 811 l 149 736 l 224 736 l 224 811 z m 727 811 l 102 6 l 197 6 l 823 811 l 727 811 z m 441 876 l 501 876 l 612 1021 l 506 1021 l 441 876 z "},"ż":{"ha":925,"x_min":0,"x_max":0,"o":"m 701 6 l 777 6 l 777 81 l 701 81 l 701 6 z m 224 811 l 149 811 l 149 736 l 224 736 l 224 811 z m 727 811 l 102 6 l 197 6 l 823 811 l 727 811 z m 536 928 b 484 981 536 957 513 981 b 431 928 455 981 431 957 b 484 876 431 899 455 876 b 536 928 513 876 536 899 z "},"©":{"ha":616,"x_min":0,"x_max":0,"o":"m 308 661 b 518 452 424 661 518 567 b 308 242 518 336 424 242 b 99 452 193 242 99 336 b 308 661 99 567 193 661 z m 308 698 b 61 452 169 698 61 588 b 308 204 61 315 172 204 b 555 452 445 204 555 315 b 308 698 555 588 444 698 z m 309 297 b 421 345 351 297 390 314 l 397 368 b 309 330 372 344 340 330 b 187 452 242 330 187 385 b 309 574 187 519 242 574 b 397 536 341 574 374 559 l 421 559 b 309 606 390 589 351 606 b 154 452 222 606 154 537 b 309 297 154 366 222 297 z "},"ﬂ":{"ha":1222,"x_min":0,"x_max":0,"o":"m 754 803 l 102 803 l 102 729 l 754 729 l 754 803 z m 102 363 l 448 363 l 448 437 l 102 437 l 102 363 z m 752 73 l 752 428 l 677 428 l 677 1 l 677 -1 l 1154 -1 l 1154 73 l 752 73 z "},"H":{"ha":775,"x_min":0,"x_max":0,"o":"m 640 808 l 640 450 l 136 450 l 136 808 l 61 808 l 61 7 l 136 7 l 136 375 l 640 375 l 640 7 l 714 7 l 714 808 l 640 808 z "},"ﬁ":{"ha":869,"x_min":0,"x_max":0,"o":"m 102 803 l 102 729 l 754 729 l 754 803 l 102 803 z m 102 363 l 448 363 l 448 437 l 102 437 l 102 363 z m 680 1 l 754 1 l 754 437 l 680 437 l 680 1 z "}}}
